<svg id="Layer_1" data-name="Layer 1" xmlns="http://www.w3.org/2000/svg" viewBox="0 0 500 500"><defs><style>.cls-1{fill:#fffcee;}.cls-2{fill:#ffb61c;}.cls-3{fill:#fcd116;}.cls-4{fill:#fedf30;}.cls-5{fill:#fe7d43;}.cls-6{fill:#fe9901;}</style></defs><rect class="cls-1" x="72.66" y="77.43" width="353.14" height="353.14" rx="81.07"/><circle class="cls-2" cx="269.24" cy="219" r="86.36"/><circle class="cls-3" cx="249.24" cy="219" r="86.36"/><circle class="cls-4" cx="227.78" cy="219" r="86.36"/><path class="cls-2" d="M227.78,132.64h-2.56a88.24,88.24,0,0,0-9.4.78l.69,5a81.45,81.45,0,0,1,11.27-.78v-5Zm-23.69,3.29c-1.88.54-3.73,1.13-5.55,1.79h0l-.08,0h0l-.08,0h0l0,0h-.1l0,0H198l0,0h-.18l0,0h-.08l0,0h-.14l-.08,0h0l-.08,0h0l-.09,0h0q-2.22.84-4.38,1.79l2,4.58a80.14,80.14,0,0,1,10.62-3.85l-1.37-4.81Zm-21.87,9.7h0l0,0h0l0,0h0l0,0h0l0,0h0l0,0h0l0,0h0l0,0h0l0,0h0l0,0h0l0,0h0l0,0h0l0,0h0l0,0h0l0,0h0l-.07,0h0l0,0h0l0,0h0l0,0h0l0,0h0l0,0h0l0,0h0l0,0h0l-.07,0h0l0,0h0l0,0h0l0,0h0l0,0h0l0,0h0l0,0h0l0,0h0l0,0h0l0,0h0l0,0h0l0,0h0l0,0h0l0,0h0l0,0h0l0,0h0l0,0h0l-.07.05h0l0,0h0l0,0h0l0,0h0l0,0h0l0,0h0l0,0h0l0,0h0l0,0h0l0,0h0l0,0h0l0,0h0l0,0h0l0,0h0l0,0h-.05l0,0h0l0,0h0l0,0h-.05l0,0h0l0,0h0l0,0h-.06l0,0h0l0,0h0l0,0h0l0,0h-.07l0,0h0l0,0h0l0,0h0l0,0h0l0,0h-.08l0,0h0l0,0h0l0,0h0l0,0h0l0,0h0l-.07,0h0l-.05,0h0l0,0h0l0,0h0l-.08.06h0l-.08.05h0l-.08.05h0l-.26.19h0c-1.21.86-2.4,1.74-3.56,2.66h0l-.08.06h0l-.07.06h0l-.07.06h0l0,0h0l0,0h0l0,0h0l-.06,0h0l0,0h0l0,0h0l0,0,0,0h0v0l0,0h0l0,0h0l0,0h0l0,0h0l0,0h0l0,0h0l0,0h0l0,0h0l0,0h0l0,0h0l0,0h0l-.07,0h0l-.61.5,3.2,3.84a82.59,82.59,0,0,1,9.16-6.62l-2.64-4.24ZM163.84,161c-.89,1-1.76,2-2.6,3h0l-.06.07h0l-.06.07h0l0,0h0l0,0h0l0,0h0l0,0h0l0,0h0l-.06.07h0l0,0h0l0,0h0l0,0h0l0,0h0l0,0h0l0,0h0l0,0h0l0,0h0l0,0h0l0,0h0l0,0h0l0,0h0l0,0h0l0,0h0l0,0h0l0,0h0v0l0,0,0,0v0h0l0,0,0,0h0v0l0,0v0l0,0h0v0h0l0,0h0v0h0l0,0h0v0h0l0,0h0v0h0l0,.07h0l0,.07h0l-.06.08h0l0,0h0l-.06.07h0c-1.17,1.49-2.29,3-3.37,4.6l4.13,2.82a83,83,0,0,1,7-8.87L163.84,161Zm-13.48,19.76-.07.12h0l-.06.13h0l0,.08h0l0,.09h0l-.06.12h0l0,.09h0l0,0h0l0,0h0l0,0h0l0,.08h0l0,.08h0l0,.08h0v0h0l0,.08h0l0,.08h0v0h0v0h0v0h0v0h0l0,0h0l0,.08h0v0h0v0h0v0h0l0,.08h0v0h0l0,0h0l0,0h0l0,0h0l0,0h0l0,.07h0l0,0h0l0,0h0l0,0h0l0,0h0l0,0h0l0,.08h0l0,0h0l0,0h0l0,0h0l0,.08h0l0,.08h0v0h0l0,0h0l0,0h0l0,.08h0l0,.08h0l0,0h0l0,.09h0l0,.08h0l0,.09h0l-.1.21h0q-1.16,2.64-2.15,5.35h0l0,.09h0l0,.09h0v0h0l0,0h0v0h0l0,0h0v0h0v0h0v0h0v0h0l0,0h0v0l0,0h0v.07h0v.15h0v.08h0v0h0l0,.05h0v0h0l0,.08h0l0,.09h0v0h0l0,.1h0c-.1.29-.2.58-.29.87l4.74,1.57a81,81,0,0,1,4.3-10.44l-4.48-2.22Zm-7.53,22.7c-.25,1.36-.47,2.74-.65,4.12h0l0,.13h0v.09h0v0h0v.09h0v0h0V208h0v0h0v0h0v0h0v.06h0v.35h0v0h0v.08h0v0h0v0h0v0h0v0h0v0h0V209h0v0h0v0h0v0h0v0h0v.08h0v0h0v.09h0v0h0v.05h0v0h0l0,.13h0v.1h0c-.19,1.83-.33,3.68-.41,5.55l5,.21a79.56,79.56,0,0,1,1.25-11.23l-4.92-.9Zm4,23.43-5,.48c.24,2.54.6,5.06,1.06,7.53h0v0h0l0,.09h0l0,.09h0v0h0v.09h0v0h0v.06h0v0l0,.08h0v0h0v0h0v.12h0v0h0V236h0v.18h0v0h0v0h0v.08h0v0h0v0h0l0,.08h0v0h0v.05h0v0h0l0,.08h0v0h0l0,.09h0l0,.09h0V237h0l0,.09h0l0,.13h0v.09h0c.13.6.26,1.21.41,1.81l4.86-1.16a82.07,82.07,0,0,1-1.85-11.15ZM152,248.76l-4.66,1.83a85.87,85.87,0,0,0,5.16,10.82l4.35-2.46A80.51,80.51,0,0,1,152,248.76Zm11.08,19.62-4,3a87.91,87.91,0,0,0,7.92,9l3.52-3.56a81.2,81.2,0,0,1-7.47-8.48Zm16,15.85-3,4h0l0,0h0l0,0h0l0,0h0v0l0,0h0l.06.05h0l.07,0h0l.07.06h0a89.29,89.29,0,0,0,8.39,5.46h0l.09.05h0l.08,0h0l.07,0h0l0,0h0l0,0h.05l0,0h.05l0,0h.15l0,0h.09l0,0h.1l0,0h0l0,0h0l0,0h0l0,0h0l0,0h0l0,0h0l0,0h0l2.41-4.38a81.72,81.72,0,0,1-9.5-6.12Zm19.75,10.85-1.78,4.68c1.83.69,3.69,1.33,5.57,1.9h0l.09,0h.05l.08,0h0l.08,0h.14l.08,0h1l.05,0h0l.08,0h.14l.09,0h0l.12,0h0l.09,0h0l.22.06h0c1.16.31,2.33.61,3.5.87l1.11-4.87a80.08,80.08,0,0,1-10.81-3.27Zm22,5-.42,5,1.71.13h.7c1.16.07,2.32.11,3.49.13h3.85c.75,0,1.5-.05,2.24-.09l-.26-5c-1.46.08-2.93.12-4.4.12-2.3,0-4.63-.1-6.91-.29Zm33.43-4.13a80.5,80.5,0,0,1-10.91,2.92l1,4.91c1.09-.21,2.19-.45,3.27-.7h0l.09,0h0l.09,0h.71l.09,0h0l.09,0h0l.09,0h0l.13,0h0c2.35-.59,4.65-1.28,6.92-2.06l-1.63-4.73Zm20.07-10.23a83.3,83.3,0,0,1-9.68,5.82L267,296l.3-.15h0l.08,0h0l0,0h0l0,0h0l0,0h0l.08,0h0l.08,0h.05l0,0h0l0,0h0l0,0h0l0,0H268l0,0h0l0,0h0l0,0h.05l0,0h0l0,0h0l0,0h.1l0,0h.05l0,0h.07l0,0h.05l0,0h.08l0,0h0l0,0h0l0,0h.07l0,0h.17l0,0h.13l0,0h.05l0,0h.05l0,0h0l0,0h.05l0,0h0l0,0h0l0,0h.05l0,0h.05l0,0H270l0,0h.08l0,0h.13l0,0h.1l0,0h.05l0,0h0l0,0h.1l0,0h0l0,0h0l0,0h.05l0,0h0l0,0H271l0,0h0l0,0h0l0,0h0l0,0h0l0,0h0l0,0h0l0,0h0l0,0h0l0,0h0l0,0h0l0,0h0l0,0h0l0,0h0l0,0h0l.07-.05h0l.07,0h0l0,0h0l0,0h0l0,0h0l.08,0h0l.08,0h0l.2-.12h0q2.32-1.41,4.56-2.95h0l.08-.05h0l.07-.05h0l0,0h0l0,0h0l0,0h0l0,0h0l0,0h0l0,0h0v0h0l-2.87-4.09Zm16.52-15.35a82.53,82.53,0,0,1-7.73,8.24l3.41,3.67a88.13,88.13,0,0,0,7.52-7.94h0l.06-.07h0l.06-.08h0l.08-.1h0l.06-.07h0l.06-.07h0l.05-.07h0v0h0l0-.05h0l0,0h0l0,0h0l0,0h0l.06-.07h0l.06-.06h0l-3.87-3.16Zm11.68-19.27a82.07,82.07,0,0,1-5.17,10l4.28,2.59h0l0,0v0l0,0v0l0,0v0l0,0h0v-.05l0,0h0l0,0h0v0l0,0v-.08l0,0v-.06l0,0h0v-.06h0l0,0h0v0h0l0,0h0v0h0l0-.05h0v0h0l0-.07h0l0,0h0l0-.05h0l0,0h0l.05-.08h0l.05-.08h0l.06-.11h0l0-.08h0l.05-.09h0c.06-.09.11-.19.16-.28h0a86.35,86.35,0,0,0,4.44-8.87l-4.6-2Zm5.92-21.74a80.13,80.13,0,0,1-2.2,11.08l4.83,1.31q.78-2.88,1.37-5.83h0l0-.09h0v0h0l0-.05h0v0h0v0h0v0h0v-.38h0v0h0v0h0v0h0v0h0v0h0l0-.09h0v0h0v-.09h0l0-.09h0c.28-1.54.52-3.09.72-4.66l-5-.63Zm4.69-23.3-4.95.75a82.86,82.86,0,0,1,.91,11.26l5-.06a87.29,87.29,0,0,0-1-11.95Zm-6.82-22.93-4.55,2.08a80.61,80.61,0,0,1,4,10.57l4.79-1.42q-1.19-4-2.73-7.8h0l0-.08h0l0-.08h0l0,0h0l0,0h0v0h0v0h0l0,0v0h0v0h0v0h0v0h0v-.17h0l0,0v0h0l0-.05h0v0h0l0-.08h0l0-.08h0c-.33-.78-.67-1.55-1-2.32ZM293.49,163l-3.8,3.24a82.52,82.52,0,0,1,6.72,9.08l4.22-2.69q-1.69-2.66-3.58-5.17h0l-.05-.07h0l-.06-.08h0l0,0h0l0,0h0l0,0h0l-.06-.07h0l0,0h0l0,0h0l0,0h0l0,0h0l0,0h0l0,0h0l0,0h0l0,0h0l0,0h0l0,0h0l0,0h0l0,0h0l0,0h0l0,0h0l0,0h0l0,0h0v0l0,0v0l0,0h0l0,0h0v0l0,0v0l0,0v0h0l-.05-.07h0l0,0h0l0,0h0l0,0h0l0,0h0v0h0l0-.08h0l-.06-.07h0c-.76-1-1.55-1.94-2.35-2.88ZM275.6,147.07l-2.77,4.17a81.55,81.55,0,0,1,8.94,6.9l3.32-3.74c-.73-.66-1.48-1.3-2.23-1.92h0l-.18-.15h0l-.07-.06h0l-.07-.06h0l-.07-.06h0l0,0h0l0,0h0l0,0h0l-.07-.06h0l0,0h0l0,0h0l0,0h0l0,0h0l0,0h0l0,0h0l0,0h0l0,0h0l0,0h0l0,0h0l0,0h0l0,0h0l0,0h-.05l0,0h0v0h0l0,0h0v0l0,0h0l0,0,0,0h0l-.06-.06h0l-.07-.06h0l0,0h0l0,0h0l0,0h0l-.07-.06h0l-.07-.06h0L281,151h0q-2.61-2-5.37-3.89ZM254,136.7l-1.52,4.77A80.36,80.36,0,0,1,263,145.64l2.17-4.5c-1.12-.54-2.25-1.06-3.4-1.55h0l-.21-.09h0l-.13-.06h0l-.09,0h0l-.08,0h0l-.13-.05h0l-.09,0h0l-.08,0h-.05l0,0h0l0,0h0l-.08,0h-.05l0,0h0l0,0h0l0,0h-.05l-.08,0h-.14l0,0h-.18l0,0h-.27l0,0h-.46l-.08,0h0l-.05,0h-.05l-.05,0h0l-.08,0h0l-.08,0h0l-.09,0h0l-.09,0h0c-1.5-.57-3-1.11-4.55-1.6Zm-23.58-4-.15,5a81.05,81.05,0,0,1,11.24,1.12l.84-4.93c-1-.17-2-.32-3-.45h0l-.14,0h-5.79c-1-.07-2-.12-3-.15Z"/><path class="cls-5" d="M250.51,200.82H246a23.08,23.08,0,0,0-4.18-9.09h9.09a4.55,4.55,0,1,0,0-9.09H205.42a4.55,4.55,0,0,0,0,9.09H223.6a13.71,13.71,0,0,1,12.82,9.09H205.06a4.55,4.55,0,1,0,0,9.09h31A13.73,13.73,0,0,1,223.24,219H205.06a4.53,4.53,0,0,0-4.18,2.82,4.26,4.26,0,0,0,1,4.91L229.15,254a4.25,4.25,0,0,0,3.18,1.36h9.09a4.55,4.55,0,0,0,0-9.09h-7.18l-18.18-18.18h7.18A22.72,22.72,0,0,0,246,209.91h5a4.55,4.55,0,1,0,0-9.09Z"/><circle class="cls-6" cx="277.78" cy="219" r="4.55"/><circle class="cls-6" cx="177.79" cy="219" r="4.55"/><path d="M188.73,362.56v6.15H166.64v-35h6.88v28.85Z"/><path d="M205.55,340.52a13,13,0,0,1,9.87,4,14.43,14.43,0,0,1,3.78,10.23v.4a14.39,14.39,0,0,1-3.78,10.22,13,13,0,0,1-9.87,4h-.29a12.8,12.8,0,0,1-9.79-4,14.28,14.28,0,0,1-3.81-10.22v-.4a14.32,14.32,0,0,1,3.81-10.23,12.82,12.82,0,0,1,9.79-4Zm-.24,6a6.4,6.4,0,0,0-5.1,2.27,9.13,9.13,0,0,0-2,6.13v.2a9.13,9.13,0,0,0,2,6.13,6.4,6.4,0,0,0,5.1,2.27h.24a6.36,6.36,0,0,0,5.08-2.27,9.17,9.17,0,0,0,1.93-6.13v-.2a9.17,9.17,0,0,0-1.93-6.13,6.36,6.36,0,0,0-5.08-2.27Z"/><path d="M235.7,340.52c7.69,0,11.7,3.83,11.7,11.25v16.94h-6.64v-4.15a9.61,9.61,0,0,1-8.5,4.86h-.1a9,9,0,0,1-6.44-2.34,7.74,7.74,0,0,1-2.52-6,7.43,7.43,0,0,1,4.2-7c2.81-1.51,7.25-2.29,13.36-2.32v-.15c0-3.56-1.88-5.34-5.67-5.37H235a9.45,9.45,0,0,0-3.76.83,12.83,12.83,0,0,0-3.4,2.08l-3.78-4.1a14.65,14.65,0,0,1,5.13-3.3,17.13,17.13,0,0,1,6.42-1.24ZM234,363.86a6.22,6.22,0,0,0,4.9-2.15,8,8,0,0,0,1.91-5.54v-.1c-7.35,0-11,1.49-11,4.39,0,2.05,1.54,3.4,4.15,3.4Z"/><path d="M268.39,340.52c6.13,0,9.6,3.73,9.6,10.4v17.79h-6.64V351.87c0-3.59-1.54-5.4-4.64-5.4h-.1c-4,0-6.3,2.93-6.3,8.21v14h-6.66V341.22h6.66v3.3a8.66,8.66,0,0,1,3.35-2.9,10,10,0,0,1,4.64-1.1Z"/><path class="cls-5" d="M284.75,333.71h15.43q12,0,12,11V345c0,7.35-3.95,11-11.89,11h-8.66v12.74h-6.89Zm6.89,16.11H300c3.44,0,5.15-1.64,5.15-4.91s-1.83-5.05-5.5-5.05h-8.05Z"/><path class="cls-5" d="M342.17,356.83H322.28c.51,4.39,3.34,7,7.66,7h.2a9.14,9.14,0,0,0,7.4-3.3l3.58,3.86c-2.46,3.2-6.66,5.05-11.37,5.05a13.8,13.8,0,0,1-10.23-3.95,14,14,0,0,1-3.93-10.3v-.4a14.36,14.36,0,0,1,3.78-10.27,12.69,12.69,0,0,1,9.67-4h.29a11.85,11.85,0,0,1,9.38,4c2.32,2.64,3.46,6.2,3.46,10.7Zm-13-10.87c-3.62,0-6.2,2.34-6.81,6.15h13.15q-.69-6.15-6.15-6.15Z"/></svg>