<svg xmlns="http://www.w3.org/2000/svg" xmlns:xlink="http://www.w3.org/1999/xlink" width="148" height="50">
    <defs>
        <linearGradient id="a" x1="58.917%" x2="90.81%" y1="9.59%" y2="60.851%">
            <stop offset="0%" stop-color="#FF177B" />
            <stop offset="100%" stop-color="#FFEC73" />
        </linearGradient>
        <linearGradient id="c" x1="37.103%" x2="0%" y1="-44.035%" y2="101.06%">
            <stop offset="0%" stop-color="#064AA2" />
            <stop offset="100%" stop-color="#63FFD4" />
        </linearGradient>
        <path id="b" d="M19.94 30.6L6.513 17.9c-.313.073-.5.306-.5.7v24.3c0 .334.134.533.3.6L19.94 30.6z" />
        <path id="e" d="M6.866 43.429l7.76-4.255 3.429-1.895 5.643-3.034-3.757-3.644L6.313 43.503c.152.049.42.022.629-.081" />
        <linearGradient id="f" x1="78.645%" x2="2.495%" y1="50%" y2="100%">
            <stop offset="0%" stop-color="#FF4521" />
            <stop offset="100%" stop-color="#8A33DB" />
        </linearGradient>
        <linearGradient id="i" x1="0%" x2="64.224%" y1="-24.186%" y2="100%">
            <stop offset="0%" stop-color="#00A3B5" />
            <stop offset="100%" stop-color="#D6FFA1" />
        </linearGradient>
        <path id="h" d="M7.225 18.015c-.258-.138-.515-.178-.723-.122L19.941 30.61l3.718-3.51-5.604-3.099-8.472-4.684-2.358-1.303z" />
    </defs>
    <g fill="none" fill-rule="evenodd">
        <rect width="148" height="50" fill="#000" rx="6" />
        <path fill="url(#a)" d="M18.055 24.002L7.244 18.025c-.601-.332-1.199-.131-1.199.562V42.94c0 .519.427.744.95.456l11.06-6.116 2.147-1.187 3.457-1.91 5.387-2.979c.632-.35.57-.829.038-1.104-.534-.275-5.425-2.999-5.425-2.999l-5.604-3.098z" />
        <mask id="d" fill="#fff">
            <use xlink:href="#b" />
        </mask>
        <use fill="url(#c)" xlink:href="#b" />
        <path d="M23.648 27.1L18.037 24c-.02.045-10.227-5.611-10.822-5.9-.605-.376-1.203-.174-1.203.5V43c0 .536.427.762.902.5.567-.315 11.103-6.154 11.123-6.2l5.61-3.1c-.028.043 4.725-2.591 5.312-2.9.677-.391.616-.871.1-1.1-.55-.323-5.44-3.051-5.411-3.1" mask="url(#d)" />
        <mask id="g" fill="#fff">
            <use xlink:href="#e" />
        </mask>
        <path fill="url(#f)" d="M18.037 24c-.02.045-10.227-5.611-10.822-5.9-.605-.376-1.203-.174-1.203.5V43c0 .536.427.762.902.5.567-.315 11.103-6.154 11.123-6.2l5.61-3.1c-.028.043 4.725-2.591 5.312-2.9.677-.391.616-.871.1-1.1-.55-.323-5.44-3.051-5.411-3.1L18.037 24z" mask="url(#g)" />
        <mask id="j" fill="#fff">
            <use xlink:href="#h" />
        </mask>
        <use fill="url(#i)" xlink:href="#h" />
        <path d="M23.648 27.1L18.037 24c-.02.045-10.227-5.611-10.822-5.9-.605-.376-1.203-.174-1.203.5V43c0 .536.427.762.902.5.567-.315 11.103-6.154 11.123-6.2l5.61-3.1c-.028.043 4.725-2.591 5.312-2.9.677-.391.616-.871.1-1.1-.55-.323-5.44-3.051-5.411-3.1" mask="url(#j)" />
        <g fill="#FFF">
            <path d="M101.367 34.887l-1.11 1.051c-.256.142-.511.306-.765.422-.771.352-1.555.44-2.251.44-.741 0-1.903-.048-3.089-.909-1.646-1.164-2.366-3.165-2.366-4.91 0-3.61 2.928-5.381 5.316-5.381.835 0 1.692.21 2.39.652 1.159.77 1.458 1.77 1.625 2.305l-5.454 2.212-1.786.14c.578 2.96 2.573 4.682 4.778 4.682 1.101 0 1.919-.361 2.669-.733 0 0 .15-.079.043.029zm-3.332-5.94c.437-.162.665-.302.665-.629 0-.936-1.036-2.018-2.273-2.018-.917 0-2.637.73-2.637 3.263 0 .395.046.816.07 1.237l4.175-1.852z" />
            <path d="M89.985 34.76c0 .903.16 1.043.92 1.114.396.047.791.068 1.182.114l-.856.512h-4.075c.535-.697.627-.766.627-1.23v-.519l-.01-13.812h-1.799l1.733-.839h3.307c-.717.417-.932.671-1.024 1.484l-.005 13.176" />
            <path d="M83.662 26.74c.53.438 1.637 1.369 1.637 3.134 0 1.72-.964 2.53-1.936 3.298-.298.303-.647.63-.647 1.137 0 .514.349.793.6 1l.834.648c1.013.861 1.938 1.651 1.938 3.255 0 2.185-2.102 4.388-6.073 4.388-3.346 0-4.963-1.603-4.963-3.322 0-.836.414-2.02 1.78-2.832 1.43-.88 3.37-.999 4.408-1.067-.324-.422-.694-.863-.694-1.583 0-.394.117-.628.23-.905-.252.024-.506.049-.737.049-2.449 0-3.833-1.838-3.833-3.65 0-1.067.485-2.253 1.48-3.112 1.316-1.09 2.885-1.278 4.132-1.278h4.757l-1.479.84h-1.434zm-1.624 10.285c-.19-.025-.305-.025-.536-.025-.21 0-1.468.046-2.442.378-.515.192-2.004.757-2.004 2.437 0 1.676 1.608 2.885 4.095 2.885 2.234 0 3.42-1.088 3.42-2.554 0-1.206-.767-1.842-2.533-3.12zm.653-4.473c.531-.535.578-1.273.578-1.693 0-1.665-.986-4.259-2.897-4.259-.596 0-1.241.301-1.608.767-.389.483-.505 1.108-.505 1.71 0 1.551.897 4.123 2.872 4.123.576 0 1.196-.282 1.56-.648zM69.274 36.8c-3.677 0-5.645-2.895-5.645-5.516 0-3.063 2.474-5.684 5.992-5.684 3.401 0 5.531 2.692 5.531 5.519 0 2.76-2.105 5.681-5.878 5.681zm2.876-1.893c.561-.751.698-1.688.698-2.601 0-2.066-.974-6.006-3.853-6.006-.766 0-1.537.302-2.093.796-.907.82-1.069 1.852-1.069 2.864 0 2.318 1.134 6.14 3.948 6.14.908 0 1.835-.444 2.37-1.193zM56.949 36.8c-3.68 0-5.645-2.895-5.645-5.516 0-3.063 2.475-5.684 5.994-5.684 3.4 0 5.53 2.692 5.53 5.519 0 2.76-2.104 5.681-5.88 5.681zm2.877-1.893c.558-.751.697-1.688.697-2.601 0-2.066-.978-6.006-3.855-6.006-.77 0-1.532.302-2.09.796-.908.82-1.07 1.852-1.07 2.864 0 2.318 1.14 6.14 3.95 6.14.906 0 1.832-.444 2.368-1.193zm-10.048 1.201l-3.115.716c-1.262.2-2.395.376-3.595.376-6.008 0-8.298-4.442-8.298-7.918 0-4.246 3.244-8.182 8.8-8.182 1.175 0 2.305.174 3.335.456 1.633.46 2.396 1.028 2.873 1.36l-1.81 1.727-.762.171.544-.87c-.737-.723-2.091-2.057-4.661-2.057-3.437 0-6.03 2.624-6.03 6.454 0 4.114 2.96 7.984 7.708 7.984 1.395 0 2.113-.281 2.765-.544v-3.527l-3.289.178 1.744-.94h4.616l-.565.545c-.152.13-.173.174-.216.348-.022.2-.044.833-.044 1.056v2.667m58.312-1.114V40.9h-1.173V25.871h1.172v1.712c.764-1.106 2.16-1.983 3.781-1.983 2.908 0 4.867 2.206 4.867 5.7 0 3.469-1.959 5.721-4.867 5.721-1.53 0-2.901-.79-3.78-2.027zm7.444-3.605c0-2.66-1.377-4.689-3.818-4.689-1.517 0-2.967 1.2-3.597 2.246v4.862c.63 1.048 2.08 2.292 3.597 2.292 2.441 0 3.818-2.046 3.818-4.71zm2.806-9.689h1.202v15.1h-1.202zm14.275 18.16c.25.112.679.18.95.18.717 0 1.217-.293 1.666-1.33l.855-1.938-4.62-10.972h1.309l3.962 9.508 3.924-9.508h1.327l-5.634 13.275c-.585 1.367-1.505 2.025-2.768 2.025-.38 0-.88-.067-1.172-.157l.201-1.083m-3.309-3.075a20.31 20.31 0 0 1-.182-.993 6.661 6.661 0 0 1-.057-.853c-.404.594-.976 1.088-1.708 1.477-.732.392-1.428.584-2.382.584-1.15 0-2.041-.283-2.678-.856-.634-.573-.953-1.349-.953-2.33 0-.981.462-1.777 1.384-2.386.922-.612 2.113-.916 3.587-.916h2.75v-1.359c0-.783-.266-1.398-.799-1.845-.535-.447-1.285-.673-2.258-.673-.889 0-1.61.207-2.16.609-.544.41-.818.919-.818 1.532h-1.207l-.025-.059c-.044-.826.334-1.551 1.138-2.177.8-.626 1.848-.94 3.138-.94 1.286 0 2.326.31 3.11.927.784.612 1.177 1.496 1.177 2.651v5.397c0 .387.019.762.067 1.127.05.365.13.73.235 1.083h-1.36zM125.119 36c1 0 1.72-.225 2.455-.67.73-.443 1.227-1.02 1.488-1.719V31.5H126.3c-1.054 0-1.928.235-2.615.708-.688.473-1.036 1.044-1.036 1.709 0 .627.22 1.129.66 1.509.44.384 1.042.574 1.81.574zM34.374 11.531c0-2.154 1.723-3.54 3.867-3.54 1.436 0 2.376.637 2.96 1.416l-1.048.565a2.436 2.436 0 0 0-1.912-.913c-1.458 0-2.541 1.026-2.541 2.472 0 1.425 1.083 2.472 2.54 2.472.752 0 1.415-.318 1.746-.615V12.33h-2.21v-1.057h3.492v2.555c-.718.749-1.756 1.251-3.027 1.251-2.144 0-3.867-1.405-3.867-3.549m8.566 3.446v-6.88h5.118v1.063H44.25v1.773h3.73v1.063h-3.73v1.918h3.808v1.063H42.94m8.599 0V9.16h-2.227V8.096h5.745v1.063h-2.228v5.817h-1.29m8.114-6.88h1.253v6.88h-1.253zm4.84 6.88V9.16h-2.229V8.096h5.746v1.063h-2.227v5.817h-1.29m7.799-3.44c0-2.045 1.577-3.544 3.814-3.544 2.224 0 3.812 1.5 3.812 3.544s-1.588 3.544-3.812 3.544c-2.237 0-3.814-1.5-3.814-3.544zm6.268-.052c0-1.403-.966-2.45-2.454-2.45-1.5 0-2.456 1.047-2.456 2.45 0 1.392.956 2.45 2.456 2.45 1.488 0 2.454-1.058 2.454-2.45zm7.947 3.492l-3.837-4.92v4.92h-1.29v-6.88h1.323l3.76 4.766V8.096h1.29v6.88h-1.246" />
        </g>
    </g>
</svg>