<svg width="330" height="330" viewBox="0 0 330 330" fill="none" xmlns="http://www.w3.org/2000/svg">
    <path fill-rule="evenodd" clip-rule="evenodd" d="M102.894 209.248C62.9555 218.558 40.1047 205.559 34.342 170.251C25.698 117.288 54.98 61.6463 95.158 56.3124C135.336 50.9785 152.226 66.1935 180.465 85.2999C208.704 104.406 290.55 149.362 299.849 156.992C309.148 164.622 329.044 194.437 289.248 213.322C262.718 225.912 229.714 223.54 190.235 206.208C176.357 200.14 163.719 196.929 152.321 196.575C140.923 196.221 124.447 200.445 102.894 209.248Z" fill="#64FCD9" />
    <path d="M148.42 142.008C152.01 144.351 153.454 147.382 152.751 151.101C149.389 156.14 147.708 160.504 147.708 164.193C147.708 167.881 147.455 172.679 146.949 178.586L119.006 179.177L118.947 179.141C118.2 179.155 117.466 179.167 116.744 179.177C110.525 179.257 105.008 180.081 104.747 180.121C102.711 180.437 99.0412 176.659 98.0228 175.38C96.3863 173.323 95.6085 170.889 95.2627 168.24C94.9366 165.741 95.3966 163.418 96.3 161.191C97.3555 158.589 99.0077 156.337 101.102 154.354C103.399 152.248 105.873 150.529 108.646 149.261C108.754 149.212 110.744 148.233 110.839 148.245C110.903 148.254 114.085 149.273 118.51 151.34C123.532 147.771 128.964 143.993 134.806 140.009C140.293 138.999 144.831 139.665 148.42 142.008Z" fill="white" />
    <path fill-rule="evenodd" clip-rule="evenodd" d="M112.263 202.821C116.657 203.726 119.306 202.002 120.209 197.649C121.565 191.119 113.374 192.286 110.867 188.926C108.36 185.565 113.921 184.892 120.209 186.909C126.504 186.633 128.321 186.993 128.682 185.258C129.044 183.522 125.764 182.428 117.005 182.714C108.246 183.001 109.534 183.012 110.201 190.331C110.645 195.209 111.333 199.373 112.263 202.821Z" fill="white" />
    <path d="M221.459 216.766C218.082 213.972 215.703 212.215 214.429 211.092C211.384 208.409 208.266 205.81 205.194 203.157C204.563 202.612 203.95 202.025 203.43 201.375C202.778 200.56 202.927 199.997 203.956 199.6C204.769 199.287 205.656 199.143 206.524 199.004C209.109 198.591 211.7 198.205 214.292 197.833C215.431 197.67 216.579 197.574 217.721 197.433C217.925 197.407 218.12 197.305 218.319 197.239C218.22 197.078 218.144 196.896 218.019 196.76C217.018 195.68 216.009 194.609 215.002 193.535C214.913 193.441 214.819 193.351 214.728 193.259C214.871 193.225 215.012 193.179 215.157 193.157C217.811 192.766 220.465 192.371 223.12 191.99C224.864 191.739 226.607 191.479 228.356 191.273C230.146 191.063 231.941 190.893 233.737 190.744C235.343 190.611 236.956 190.556 238.562 190.422C239.591 190.336 240.61 190.133 241.64 190.05C242.926 189.946 244.219 189.93 245.507 189.841C247.117 189.731 248.722 189.57 250.331 189.462C251.684 189.372 253.041 189.347 254.394 189.256C255.485 189.182 256.57 189.021 257.662 188.955C258.728 188.891 259.799 188.898 260.868 188.873C263.635 188.808 266.402 188.729 269.169 188.683C270.862 188.655 272.57 188.55 274.244 188.731C275.117 188.825 276.115 189.276 276.738 189.89C278.31 191.443 279.704 193.177 281.166 194.842C282.062 195.863 282.96 196.883 283.842 197.916C285.701 200.093 287.546 202.283 289.406 204.459C289.984 205.135 290.602 205.776 291.182 206.45C291.349 206.643 291.446 206.896 291.575 207.121C291.392 206.972 290.847 206.505 291.028 206.67C308.975 222.997 233.397 226.468 221.459 216.766Z" fill="white" />
    <path d="M17.028 156.437C17.0892 154.756 17.1412 153.075 17.2065 151.394C17.2276 150.851 17.289 150.309 17.3225 149.766C17.601 145.26 18.1364 140.781 19.2898 136.412C20.2102 132.925 21.4255 129.534 22.9026 126.221C24.5875 122.443 26.636 118.889 28.9963 115.511C30.1988 113.789 31.5123 112.131 32.9098 110.562C34.5912 108.674 36.3188 106.805 38.2032 105.124C40.3545 103.204 42.6663 101.455 44.988 99.7382C45.5049 99.3559 46.4186 99.1696 47.0355 99.3292C48.1187 99.6095 48.2753 100.551 47.4468 101.27C45.5654 102.903 44.6702 104.987 44.5323 107.408C44.4562 108.745 44.5814 110.094 44.5072 111.431C44.2625 115.839 45.5498 119.897 47.4563 123.768C49.2789 127.469 51.9328 130.517 55.741 132.298C57.926 133.319 60.2627 134.036 62.5638 134.792C64.5626 135.448 66.6107 135.955 68.6307 136.549C70.6125 137.132 72.5646 137.66 74.6644 136.96C75.7416 136.601 76.5497 137.564 76.1373 138.608C74.5774 142.556 73.2483 146.654 70.5082 149.982C68.8647 151.979 66.963 153.827 64.9289 155.43C61.9425 157.784 58.5086 159.462 55.0786 161.115C51.7331 162.727 48.4629 164.496 45.1026 166.076C41.317 167.855 37.4808 169.531 33.642 171.196C30.545 172.539 27.4185 173.816 24.2889 175.083C23.5406 175.386 22.739 175.598 21.9414 175.73C21.1423 175.863 19.3868 174.61 19.0732 173.781C18.2773 171.68 17.7363 169.518 17.5129 167.279C17.3769 165.915 17.1939 164.557 16.9835 163.196C16.9349 163.1 16.9349 163.003 16.9835 162.858C17.0644 160.994 17.0984 159.178 17.1209 157.362C17.1215 157.312 16.9997 157.26 16.9349 157.21C16.9349 156.984 16.9349 156.759 16.9349 156.485C16.9673 156.437 17.028 156.438 17.028 156.437Z" fill="white" />
    <path fill-rule="evenodd" clip-rule="evenodd" d="M146.614 178.527L205.42 177.029H207.832C211.348 179.648 215.206 180.777 219.406 180.415C225.705 179.872 231.268 172.919 232.567 163.226C232.758 162.47 233.223 162.288 233.96 162.681C234.771 164.263 236.212 164.954 238.28 164.752C239.179 164.655 239.678 164.865 240.185 165.84C240.692 166.815 243.373 168.041 245.053 167.057C246.734 166.073 254.481 153.525 254.481 151.414C254.481 149.302 254.915 144.691 255.257 144.393C255.599 144.095 256.242 144.337 257.491 143.941C258.739 143.546 259.807 143.939 263.811 133.432C267.813 122.924 273.938 107.215 274.591 96.2161C275.243 85.2167 267.473 89.1043 263.811 93.6943C260.148 98.2842 249.937 110.103 240.487 116.521C239.33 117.384 238.386 117.79 237.655 117.739C237.216 115.007 235.42 113.989 232.266 114.685C231.04 114.906 230.037 113.937 229.257 111.778C227.235 100.574 222.625 92.4666 215.428 87.456C204.633 79.9402 186.239 75.6451 181.813 91.3596C178.862 101.836 180.636 114.564 187.135 129.543L184.429 131.885C173.783 135.568 165.086 140.114 158.338 145.524C148.216 153.639 148.023 161.554 147.486 168.083C147.128 172.435 146.837 175.917 146.614 178.527Z" fill="white" />
    <path d="M124.854 133.282C124.944 132.431 124.985 131.574 125.083 130.724C125.088 130.678 125.521 130.581 125.645 130.666C126.803 131.461 127.947 132.276 129.069 133.121C129.373 133.35 129.397 133.578 129.535 132.979C129.75 132.042 131.083 131.781 131.881 132.446C133.711 133.972 134.635 136.025 135.304 138.256C135.885 140.192 135.655 142.16 135.712 144.116C135.748 145.371 136.924 146.318 138.158 146.368C139.07 146.406 140.03 146.806 140.85 147.259C142.836 148.354 144.113 150.083 144.741 152.26C145.417 154.604 144.788 156.692 143.429 158.64C142.193 160.412 141.067 162.267 139.274 163.567C138.281 164.285 137.138 164.882 136.361 165.789C135.527 166.764 134.57 167.4 133.434 167.838C130.635 168.918 127.578 167.517 126.208 165.184C124.76 162.106 119.594 164.614 117.593 160.073C116.583 158.574 116.189 157.318 116.407 157.192C116.673 157.039 116.305 156.651 115.835 156.157C113.779 153.997 111.953 151.659 110.704 148.921C110.507 148.489 110.303 148.043 110.217 147.582C110.164 147.299 110.243 146.895 110.427 146.699C110.542 146.576 111.002 146.665 111.234 146.792C111.582 146.982 111.858 147.301 112.18 147.545C112.728 147.962 113.033 147.784 112.884 147.134C112.462 145.287 112.85 143.534 113.5 141.84C113.85 140.926 114.42 140.092 114.949 139.259C114.999 139.18 115.508 139.3 115.73 139.443C116.14 139.709 116.496 140.06 116.875 140.375C116.9 139.87 116.908 139.364 116.958 138.861C116.987 138.563 117.06 138.264 117.151 137.977C117.604 136.538 117.848 136.466 119.048 137.368C119.209 137.489 119.402 137.567 119.58 137.666C119.604 137.483 119.637 137.3 119.652 137.116C119.785 135.535 119.468 134.101 118.312 132.927C118.299 132.913 118.55 132.501 118.694 132.489C120.358 132.359 122.024 132.29 123.546 133.179C123.858 133.361 124.168 133.544 124.527 133.775C124.672 133.643 124.834 133.47 124.854 133.282Z" fill="white" />
    <path fill-rule="evenodd" clip-rule="evenodd" d="M149.539 75.1316C144.623 79.206 142.394 85.1047 142.851 92.8277C143.537 104.412 157.014 112.665 163.532 109.172C170.051 105.679 177.249 100.59 178.109 89.7575C178.474 100.065 179.554 105.082 165.657 112.557C151.759 120.033 137.23 108.433 135.129 103.653C133.028 98.8718 127.969 88.3177 138.236 76.0736C139.642 74.4542 143.409 74.1402 149.539 75.1316Z" fill="white" />
    <path fill-rule="evenodd" clip-rule="evenodd" d="M266.672 210.673C267.861 210.543 268.957 210.438 270.044 210.277C272.514 209.91 274.978 209.507 277.448 209.136C278.917 208.915 280.409 208.807 281.858 208.495C282.874 208.275 283.795 208.418 284.731 208.726C284.881 208.776 284.997 208.932 285.128 209.039C284.97 209.128 284.82 209.275 284.653 209.296C282.482 209.57 280.305 209.798 278.137 210.094C275.957 210.392 273.788 210.77 271.61 211.081C270.092 211.298 268.566 211.452 267.046 211.655C266.254 211.761 265.47 211.931 264.678 212.037C263.556 212.186 262.427 212.286 261.306 212.437C259.99 212.614 258.68 212.834 257.365 213.016C256.308 213.162 255.245 213.269 254.188 213.413C252.841 213.597 251.497 213.807 250.15 213.995C249.157 214.134 248.162 214.26 247.166 214.387C246.119 214.521 245.066 214.625 244.023 214.788C243.391 214.886 242.81 214.881 242.623 214.155C242.451 213.492 242.79 212.972 243.435 212.829C244.319 212.634 245.227 212.527 246.129 212.441C247.201 212.34 248.279 212.297 249.354 212.239C250.678 212.167 252.005 212.131 253.327 212.035C254.734 211.934 256.136 211.772 257.542 211.653C259.195 211.513 260.852 211.41 262.503 211.251C263.362 211.169 264.211 210.995 265.066 210.87C265.568 210.797 266.071 210.738 266.672 210.673Z" fill="#E7EAEE" />
    <path fill-rule="evenodd" clip-rule="evenodd" d="M240.875 201.516C242.065 201.451 243.159 201.406 244.25 201.318C245.408 201.224 246.562 201.068 247.72 200.978C249.021 200.877 250.326 200.836 251.627 200.739C253.103 200.629 254.576 200.475 256.051 200.361C257.142 200.278 258.238 200.247 259.328 200.16C260.697 200.05 262.061 199.893 263.429 199.783C264.52 199.696 265.615 199.668 266.706 199.581C268.148 199.466 269.585 199.251 271.028 199.203C272.674 199.148 274.327 198.635 275.972 199.203C276.168 199.271 276.346 199.39 276.532 199.485C276.355 199.519 276.179 199.564 276.001 199.583C274.753 199.716 273.502 199.829 272.256 199.975C270.742 200.153 269.234 200.386 267.718 200.54C266.609 200.654 265.488 200.646 264.378 200.752C262.856 200.896 261.341 201.115 259.82 201.268C258.716 201.379 257.605 201.426 256.499 201.518C255.056 201.638 253.614 201.769 252.172 201.903C250.859 202.026 249.545 202.148 248.234 202.291C246.559 202.472 244.888 202.695 243.212 202.861C241.621 203.018 240.024 203.106 238.433 203.26C237.326 203.367 236.228 203.57 235.121 203.657C234.688 203.691 234.207 203.597 233.81 203.421C233.527 203.295 233.348 202.935 233.123 202.68C233.409 202.485 233.681 202.147 233.984 202.118C235.82 201.943 237.663 201.844 239.502 201.704C239.93 201.672 240.353 201.58 240.875 201.516Z" fill="#E7EAEE" />
    <path fill-rule="evenodd" clip-rule="evenodd" d="M139.702 225.863C139.603 225.943 139.55 226.004 139.5 226.002C139.046 225.989 138.592 225.965 138.138 225.944C138.572 225.645 138.968 225.184 139.446 225.075C141.327 224.644 143.021 223.885 144.59 222.765C146.64 221.301 147.906 219.382 148.367 216.93C148.438 216.552 148.332 216.383 147.876 216.385C147.225 216.389 146.573 216.282 145.923 216.209C144.651 216.065 143.639 215.166 143.527 214.093C143.456 213.406 144.488 211.966 145.25 211.594C147.024 210.73 148.995 212.436 149.499 213.914C149.702 214.509 149.799 214.293 150.067 214.049C151.333 212.892 151.747 211.406 151.647 209.774C151.539 208.03 150.771 206.627 149.258 205.646C148.733 205.306 148.532 204.822 148.939 204.204C149.382 203.53 150.612 203.484 151.092 204.08C151.742 204.886 152.312 205.814 152.67 206.78C153.54 209.121 153.317 211.398 151.855 213.493C151.75 213.643 151.664 213.816 151.529 213.933C150.381 214.93 149.762 216.17 149.295 217.632C147.911 221.966 144.734 224.526 140.426 225.807C140.219 225.869 139.977 225.815 139.702 225.863ZM145.561 212.753C144.729 213.245 144.502 214.658 145.29 214.904C146.198 215.188 147.249 215.031 148.238 215.041C148.28 215.041 148.351 214.792 148.365 214.656C148.494 213.326 147.248 212.409 145.561 212.753Z" fill="#FFB61D" />
    <path fill-rule="evenodd" clip-rule="evenodd" d="M255.733 205.754C258.477 205.493 261.122 205.213 263.772 204.979C265.649 204.814 267.534 204.729 269.412 204.575C270.572 204.48 271.727 204.327 272.882 204.189C274.477 204 276.073 203.646 277.665 203.664C278.573 203.675 279.629 203.969 280.248 204.889C280.296 204.96 280.349 205.027 280.401 205.097C280.281 205.12 280.152 205.185 280.042 205.162C277.966 204.722 275.924 205.147 273.864 205.337C272.428 205.47 270.967 205.312 269.522 205.377C268.071 205.443 266.626 205.629 265.177 205.752C263.578 205.889 261.975 205.994 260.378 206.152C259.52 206.238 258.673 206.428 257.816 206.53C256.542 206.681 255.262 206.778 253.989 206.931C252.533 207.106 251.075 207.281 249.629 207.521C247.909 207.807 246.206 208.187 244.487 208.482C242.785 208.774 241.08 209.085 239.363 209.236C238.581 209.305 237.753 209.062 236.971 208.861C236.37 208.706 236.507 208.283 236.89 208.005C237.199 207.781 237.578 207.586 237.949 207.528C239.066 207.353 240.194 207.249 241.319 207.122C242.507 206.988 243.694 206.84 244.886 206.735C246.581 206.586 248.281 206.488 249.976 206.333C251.006 206.239 252.029 206.063 253.058 205.954C253.915 205.864 254.776 205.819 255.733 205.754Z" fill="#E7EAEE" />
    <path fill-rule="evenodd" clip-rule="evenodd" d="M237.533 197.678C239.797 197.42 241.962 197.148 244.131 196.908C245.54 196.752 246.957 196.663 248.367 196.508C249.19 196.418 250.005 196.248 250.826 196.131C251.39 196.05 251.959 196.005 252.524 195.933C254.252 195.711 255.977 195.458 257.709 195.266C259.471 195.071 261.24 194.951 263.003 194.766C264.618 194.596 266.224 194.332 267.841 194.217C268.422 194.176 269.035 194.416 269.612 194.596C269.804 194.656 269.93 194.93 270.085 195.106C269.865 195.179 269.647 195.301 269.422 195.317C268.164 195.407 266.901 195.453 265.643 195.552C264.315 195.657 262.989 195.793 261.664 195.938C260.649 196.048 259.639 196.202 258.624 196.319C257.407 196.459 256.184 196.555 254.97 196.715C253.188 196.951 251.412 197.234 249.632 197.482C247.704 197.751 245.769 197.973 243.845 198.268C242.183 198.523 240.535 198.865 238.876 199.142C236.696 199.507 234.511 199.837 232.331 200.203C231.535 200.337 231.051 199.883 230.98 199.251C230.914 198.678 231.419 198.469 232.064 198.426C233.756 198.313 235.441 198.069 237.127 197.865C237.236 197.852 237.333 197.743 237.533 197.678Z" fill="#E7EAEE" />
    <path fill-rule="evenodd" clip-rule="evenodd" d="M262.824 217.985C260.712 218.249 258.696 218.507 256.682 218.779C255.825 218.895 254.972 219.118 254.115 219.129C253.836 219.132 253.282 218.56 253.326 218.351C253.414 217.929 253.776 217.298 254.107 217.24C255.518 216.995 256.96 216.933 258.389 216.795C259.679 216.67 260.967 216.527 262.256 216.402C263.686 216.263 265.116 216.13 266.547 216.006C268.149 215.866 269.751 215.731 271.355 215.611C272.453 215.529 273.556 215.497 274.653 215.404C275.944 215.295 277.231 215.13 278.521 215.018C279.554 214.928 280.593 214.906 281.624 214.809C282.689 214.708 283.748 214.55 284.81 214.421C284.938 214.406 285.079 214.388 285.198 214.425C285.608 214.551 286.012 214.7 286.418 214.841C286.06 214.965 285.71 215.153 285.343 215.201C283.169 215.487 280.989 215.732 278.813 216.007C277.366 216.19 275.923 216.419 274.475 216.592C273.145 216.751 271.808 216.843 270.478 217.002C269.778 217.086 269.092 217.292 268.392 217.37C266.902 217.534 265.405 217.644 263.913 217.791C263.579 217.824 263.252 217.919 262.824 217.985Z" fill="#E7EAEE" />
    <path fill-rule="evenodd" clip-rule="evenodd" d="M101.102 154.354C103.399 152.248 105.873 150.529 108.646 149.262C108.754 149.212 108.864 149.093 108.959 149.106C109.376 149.163 109.787 149.257 110.201 149.338C109.902 149.542 109.623 149.791 109.3 149.944C106.092 151.465 103.103 153.31 100.673 155.953C98.31 158.522 96.6162 161.404 96.2425 165.003C95.899 168.312 96.3188 171.406 98.1903 174.196C99.1948 175.694 100.551 176.812 102.199 177.553C102.33 177.612 102.453 177.688 102.58 177.757C102.433 177.786 102.286 177.822 102.138 177.845C100.102 178.161 99.0412 176.66 98.0228 175.38C96.3863 173.323 95.6085 170.889 95.2627 168.24C94.9366 165.741 95.3966 163.418 96.3 161.191C97.3555 158.589 99.0077 156.337 101.102 154.354Z" fill="#00160A" />
    <path fill-rule="evenodd" clip-rule="evenodd" d="M228.506 197.098C228.16 196.337 228.662 195.493 229.458 195.501C230.817 195.514 232.177 195.605 233.536 195.673C234.576 195.726 235.615 195.794 236.655 195.856C236.78 195.863 236.938 195.824 237.024 195.882C237.313 196.078 237.577 196.307 237.851 196.524C237.587 196.653 237.331 196.875 237.058 196.896C236.216 196.958 235.359 197.019 234.522 196.943C233.04 196.809 231.638 197.142 230.269 197.561C229.524 197.789 229.054 197.551 228.506 197.098Z" fill="#E7EAEE" />
    <path fill-rule="evenodd" clip-rule="evenodd" d="M32.128 134.382C31.9341 135.56 31.7195 136.637 31.5539 137.721C31.4489 138.409 31.4255 139.108 31.3506 139.8C31.2283 140.93 31.0135 142.057 30.9807 143.188C30.9012 145.929 30.9262 148.673 30.8677 151.415C30.8113 154.059 31.3209 156.618 31.9372 159.165C32.057 159.66 32.0932 160.243 32.3867 160.612C32.8371 161.179 32.4189 161.453 32.1027 161.54C31.8006 161.623 31.2112 161.475 31.0901 161.247C30.7582 160.623 30.5333 159.918 30.3973 159.22C30.0525 157.451 29.6347 155.678 29.5134 153.889C29.3493 151.468 29.4631 149.029 29.4063 146.599C29.3374 143.654 29.7714 140.762 30.176 137.858C30.8439 133.065 31.7989 128.34 33.3134 123.74C33.4963 123.185 33.9068 122.649 34.3439 122.247C34.8778 121.755 35.7003 122.204 35.8179 122.946C35.9571 123.823 35.5575 124.494 35.0755 125.157C33.6246 127.153 32.8992 129.43 32.516 131.835C32.3858 132.652 32.2573 133.469 32.128 134.382Z" fill="#E7EAEE" />
    <path fill-rule="evenodd" clip-rule="evenodd" d="M41.9116 155.282C41.8432 155.884 42.9263 156.606 41.7188 156.834C41.3923 156.895 40.6778 156.243 40.5276 155.8C40.0725 154.46 39.632 153.077 39.5097 151.684C39.3407 149.762 39.4673 147.815 39.4673 145.879C39.4673 145.655 39.4673 145.43 39.4673 145.205C39.4673 142.157 39.4812 139.109 39.458 136.061C39.4518 135.252 39.2628 134.443 39.2864 133.638C39.3038 133.046 39.4267 132.41 39.6992 131.886C39.8941 131.511 40.3974 131.095 40.7964 131.063C41.0706 131.04 41.6207 131.618 41.6654 131.971C41.7824 132.894 41.7353 133.845 41.6662 134.779C41.6126 135.504 41.3579 136.217 41.3142 136.942C41.2049 138.753 41.1571 140.567 41.0987 142.381C41.0231 144.729 40.8091 147.084 40.9403 149.422C41.0488 151.354 41.5721 153.266 41.9116 155.282Z" fill="#E7EAEE" />
    <path fill-rule="evenodd" clip-rule="evenodd" d="M51.1534 151.371C49.3185 148.534 47.9509 145.538 47.0951 142.322C46.9226 141.673 47.0725 140.851 47.3158 140.205C47.4326 139.895 48.2441 139.547 48.5069 139.685C48.8633 139.873 49.1471 140.494 49.1963 140.958C49.3862 142.752 49.5084 144.528 50.1001 146.274C50.8191 148.395 52.0522 150.165 53.2466 151.984C53.4952 152.362 54.2388 152.736 53.7143 153.217C53.1918 153.695 52.6607 153.14 52.2666 152.701C51.8962 152.288 51.5547 151.848 51.1534 151.371Z" fill="#E7EAEE" />
    <path fill-rule="evenodd" clip-rule="evenodd" d="M59.5744 145.293C58.4709 144.219 57.366 143.24 56.378 142.149C55.8641 141.581 55.9604 140.86 56.5781 140.319C57.194 139.779 57.5794 140.283 57.9342 140.694C59.2767 142.249 60.6004 143.821 61.9252 145.392C62.0002 145.481 62.0798 145.705 62.0608 145.719C61.8442 145.869 61.5642 146.145 61.3865 146.091C60.7798 145.905 60.2072 145.601 59.5744 145.293Z" fill="#E7EAEE" />
    <path fill-rule="evenodd" clip-rule="evenodd" d="M117.708 275.824C120.203 276.449 122.612 277.04 124.989 277.729C125.425 277.855 125.735 278.382 126.103 278.724C125.587 278.757 125.038 278.916 124.559 278.801C122.09 278.21 119.617 277.617 117.188 276.892C114.804 276.181 112.472 275.313 110.118 274.51C110.006 274.471 109.913 274.385 109.805 274.331C109.229 274.043 108.615 273.75 109.069 272.977C109.488 272.264 110.139 272.281 110.784 272.646C111.729 273.18 112.6 273.854 113.585 274.302C114.885 274.894 116.265 275.325 117.708 275.824Z" fill="#E7EAEE" />
    <path fill-rule="evenodd" clip-rule="evenodd" d="M120.967 268.476C121.981 269.061 122.954 269.582 123.905 270.143C124.106 270.262 124.226 270.525 124.384 270.722C124.048 270.856 123.638 271.188 123.386 271.092C121.369 270.323 119.376 269.487 117.388 268.642C116.295 268.177 115.216 267.679 114.151 267.152C113.555 266.857 112.877 266.549 113.392 265.636C113.714 265.067 114.478 264.926 115.188 265.314C117.096 266.356 119.008 267.389 120.967 268.476Z" fill="#E7EAEE" />
    <path fill-rule="evenodd" clip-rule="evenodd" d="M115.36 257.664C115.32 256.263 116.218 255.672 117.383 256.363C119.365 257.539 121.296 258.802 123.233 260.053C123.81 260.426 124.355 260.858 124.869 261.316C125.062 261.487 125.123 261.807 125.244 262.059C124.908 262.052 124.526 262.149 124.245 262.022C122.587 261.274 120.947 260.484 119.312 259.686C118.003 259.046 116.709 258.372 115.36 257.664Z" fill="#E7EAEE" />
    <path fill-rule="evenodd" clip-rule="evenodd" d="M122.078 247.912C123.781 247.934 124.684 249.067 125.656 250.069C125.936 250.357 126.162 250.717 126.33 251.08C126.496 251.441 126.721 251.934 126.259 252.178C126.051 252.288 125.59 252.07 125.312 251.897C124.514 251.399 123.761 250.83 122.966 250.327C122.681 250.146 122.282 250.129 122.013 249.933C121.62 249.648 121.298 249.269 120.946 248.93C121.292 248.591 121.638 248.251 122.078 247.912Z" fill="#E7EAEE" />
    <path fill-rule="evenodd" clip-rule="evenodd" d="M127.523 220.253C128.928 223.167 130.054 226.174 130.43 229.417C130.631 231.156 130.862 232.893 130.999 234.637C131.124 236.221 131.221 237.815 131.185 239.401C131.143 241.299 130.938 243.193 130.822 245.089C130.741 246.408 130.727 247.732 130.616 249.048C130.458 250.899 130.206 252.742 130.054 254.593C129.938 255.995 129.861 257.404 129.864 258.81C129.868 260.409 129.983 262.009 130.043 263.608C130.111 265.434 129.957 267.3 130.288 269.076C130.783 271.734 131.461 274.382 132.342 276.938C133.637 280.695 135.878 283.961 138.35 287.035C139.877 288.935 141.639 290.621 144.12 291.275C144.152 291.284 144.18 291.582 144.116 291.638C143.201 292.439 142.062 292.113 141.097 291.984C138.938 291.696 136.803 291.186 134.683 290.668C129.295 289.35 123.915 288.001 118.544 286.618C115.927 285.944 113.338 285.16 110.732 284.443C110.349 284.338 109.854 284.163 109.553 284.31C108.034 285.055 106.86 284.237 105.743 283.48C103.295 281.82 101.907 279.41 101.187 276.579C100.194 272.673 100.992 268.945 102.433 265.332C103.384 262.95 104.517 260.636 105.655 258.335C106.811 255.999 108.261 253.84 110.019 251.91C110.613 251.258 111.334 250.723 111.98 250.116C112.865 249.283 112.911 248.14 112.984 247.051C113.069 245.79 112.877 244.498 113.059 243.256C113.674 239.036 115.536 235.248 117.494 231.538C118.47 229.689 119.71 227.932 121.087 226.357C122.108 225.189 123.452 224.244 125.034 223.796C125.519 223.658 125.656 223.547 125.294 222.942C124.771 222.066 124.034 221.049 124.96 219.876C126.068 218.767 126.867 218.892 127.523 220.253ZM128.995 229.052C128.958 229.09 128.894 229.123 128.886 229.166C128.814 229.536 128.806 229.928 128.679 230.278C128.119 231.821 127.686 233.439 126.911 234.87C125.358 237.738 123.374 240.322 121.031 242.609C118.988 244.604 116.916 246.568 114.89 248.579C113.735 249.725 112.547 250.861 111.552 252.141C109.956 254.194 108.279 256.239 107.058 258.514C105.639 261.156 104.575 264.007 103.548 266.836C102.903 268.613 102.465 270.498 102.195 272.371C101.905 274.385 102.293 276.393 103.203 278.229C103.875 279.582 104.82 280.703 106.368 281.191C108.22 281.774 110.038 282.463 111.886 283.061C115.985 284.387 120.07 285.766 124.206 286.969C127.302 287.87 130.461 288.566 133.607 289.285C135.389 289.692 137.201 289.967 139.004 290.277C139.147 290.302 139.323 290.131 139.483 290.05C139.402 289.936 139.332 289.812 139.239 289.709C138.581 288.979 137.847 288.305 137.27 287.517C135.679 285.346 133.936 283.248 132.649 280.903C130.365 276.742 128.834 272.281 128.491 267.483C128.385 266.005 128.236 264.531 128.107 262.862C128.107 261.009 128.032 259.152 128.13 257.305C128.214 255.721 128.499 254.148 128.687 252.569C128.823 251.428 128.868 250.271 129.092 249.148C129.52 247.002 129.318 246.136 127.493 244.912C126.645 244.343 125.579 243.794 125.538 242.603C125.52 242.098 125.924 241.5 126.305 241.11C126.42 240.992 127.234 241.321 127.5 241.637C128.1 242.353 128.555 243.192 129.08 243.973C129.165 244.099 129.31 244.183 129.428 244.287C129.504 244.157 129.635 244.032 129.648 243.897C129.729 242.988 129.842 242.077 129.836 241.168C129.829 239.999 129.713 238.831 129.658 237.662C129.586 236.096 129.534 234.528 129.46 232.962C129.408 231.846 129.345 230.731 129.258 229.618C129.243 229.424 129.087 229.24 128.995 229.052ZM125.009 225.061C122.933 225.777 121.505 227.302 120.382 229.065C118.14 232.583 116.355 236.345 115.19 240.356C114.647 242.224 114.416 244.188 115.143 246.108C115.186 246.22 115.484 246.361 115.506 246.338C118.285 243.401 121.077 240.475 123.807 237.492C126.593 234.449 127.646 230.818 127.125 226.749C126.889 224.902 126.759 224.856 125.009 225.061ZM274.244 188.731C275.117 188.825 276.115 189.276 276.738 189.89C278.31 191.443 279.704 193.177 281.166 194.842C282.062 195.863 282.96 196.883 283.842 197.916C285.701 200.093 287.546 202.283 289.406 204.459C289.984 205.135 290.602 205.776 291.182 206.45C291.349 206.643 291.446 206.896 291.575 207.121C291.392 206.972 291.195 206.837 291.028 206.67C286.633 202.269 282.254 197.85 277.839 193.469C276.393 192.034 274.751 190.82 272.767 190.254C270.677 189.658 268.548 189.456 266.358 189.815C265.255 189.996 264.096 189.809 262.966 189.854C260.449 189.955 257.935 190.12 255.418 190.213C253.943 190.267 252.463 190.181 250.99 190.249C249.413 190.322 247.841 190.501 246.267 190.636C244.82 190.76 243.372 190.877 241.926 191.018C240.78 191.13 239.639 191.287 238.494 191.4C237.038 191.544 235.577 191.631 234.125 191.803C232.894 191.949 231.675 192.191 230.448 192.375C229.084 192.579 227.716 192.757 226.352 192.963C224.252 193.28 222.154 193.606 220.059 193.95C219.981 193.963 219.852 194.266 219.896 194.33C220.284 194.889 220.684 195.444 221.122 195.964C223.31 198.562 225.527 201.136 227.703 203.744C230.17 206.702 232.558 209.727 235.067 212.647C236.828 214.697 238.564 216.811 241.049 218.075C241.129 218.115 241.2 218.173 241.274 218.222C241.184 218.238 241.083 218.287 241.004 218.263C239.486 217.818 237.902 217.635 236.793 216.2C234.747 213.549 232.543 211.022 230.438 208.416C227.833 205.192 225.357 201.858 222.263 199.066C222.011 198.839 221.747 198.603 221.448 198.454C220.785 198.123 220.176 198.013 219.659 198.796C218.63 200.357 217.507 201.856 216.479 203.417C215.793 204.459 216.016 204.97 217.256 205.813C220.521 208.035 224.068 209.616 227.862 210.694C229.442 211.143 231.009 211.712 232.132 213.042C232.212 213.136 232.297 213.226 232.379 213.318C232.246 213.305 232.103 213.319 231.98 213.275C226.871 211.468 221.755 209.678 216.662 207.823C215.825 207.518 215.055 206.979 214.324 206.45C213.858 206.113 213.88 205.607 214.184 205.064C215.231 203.2 216.231 201.31 217.24 199.425C217.308 199.297 217.338 199.001 217.314 198.993C217.057 198.905 216.774 198.777 216.521 198.815C215.464 198.976 214.398 199.128 213.366 199.398C211.035 200.007 208.72 200.679 206.404 201.343C206.269 201.382 206.18 201.585 206.07 201.712C206.656 202.169 207.241 202.627 207.876 203.133C210.33 205.269 212.738 207.353 215.141 209.444C216.428 210.564 217.707 211.693 218.989 212.817C219.042 212.864 219.097 212.907 219.15 212.952C219.029 212.972 218.898 213.034 218.788 213.006C217.23 212.612 215.703 212.215 214.429 211.092C211.384 208.409 208.266 205.81 205.194 203.157C204.563 202.612 203.95 202.025 203.43 201.375C202.778 200.56 202.927 199.997 203.956 199.6C204.769 199.287 205.656 199.143 206.524 199.005C209.109 198.591 211.7 198.205 214.292 197.833C215.43 197.67 216.579 197.575 217.721 197.433C217.925 197.407 218.12 197.305 218.319 197.239C218.22 197.078 218.144 196.896 218.019 196.76C217.018 195.68 216.009 194.609 215.002 193.535C214.913 193.441 214.819 193.351 214.728 193.26C214.871 193.225 215.012 193.179 215.157 193.157C217.811 192.766 220.465 192.372 223.12 191.99C224.864 191.739 226.607 191.479 228.356 191.274C230.146 191.063 231.941 190.893 233.737 190.744C235.343 190.612 236.956 190.556 238.562 190.422C239.591 190.336 240.61 190.134 241.639 190.05C242.926 189.946 244.219 189.93 245.507 189.842C247.117 189.731 248.722 189.57 250.331 189.462C251.684 189.372 253.041 189.347 254.394 189.256C255.485 189.182 256.57 189.021 257.662 188.955C258.728 188.891 259.799 188.898 260.868 188.873C263.635 188.808 266.402 188.729 269.169 188.683C270.862 188.655 272.57 188.55 274.244 188.731ZM113.291 182.199C114.029 182.276 114.783 182.176 115.527 182.22C117.34 182.327 119.15 182.494 120.963 182.596C122.651 182.69 124.347 182.671 126.03 182.814C127.753 182.96 128.785 183.679 128.674 185.744C128.574 187.607 128.54 189.473 128.474 191.338C128.413 193.073 128.345 194.808 128.285 196.543C128.276 196.799 128.285 197.057 128.302 197.314C128.316 197.536 128.353 197.757 128.379 197.978C128.315 197.978 128.203 197.997 128.195 197.976C128.104 197.736 127.986 197.495 127.957 197.245C127.856 196.37 127.791 195.491 127.706 194.613C127.581 193.304 127.454 191.995 127.322 190.687C127.255 190.025 127.179 189.365 127.101 188.704C127.053 188.294 127.006 187.882 126.934 187.476C126.903 187.303 126.807 187.141 126.741 186.975C126.605 187.052 126.442 187.102 126.338 187.21C125.066 188.532 124.197 190.073 123.863 191.908C123.826 192.109 123.705 192.294 123.623 192.486C123.555 192.316 123.5 192.14 123.418 191.976C121.932 189.003 119.592 187.028 116.396 186.353C114.935 186.044 113.358 186.307 111.834 186.297C111.067 186.293 110.94 186.733 111.007 187.388C111.152 188.814 111.261 190.243 111.398 191.67C111.583 193.611 111.782 195.551 111.971 197.491C112.103 198.854 112.211 200.218 112.366 201.578C112.41 201.96 112.584 202.326 112.693 202.701C112.744 202.877 112.783 203.056 112.827 203.234C112.632 203.098 112.315 203 112.263 202.821C112 201.921 111.807 201 111.588 200.087C111.333 199.027 111.076 197.968 110.82 196.811C110.564 195.005 110.212 193.305 110.076 191.587C109.883 189.159 109.512 186.705 110.052 184.287C110.358 182.919 111.92 182.056 113.291 182.199ZM108.086 186.969C108.486 187.11 108.787 187.536 109.131 187.838C108.894 188.113 108.696 188.445 108.411 188.654C107.785 189.11 107.04 189.42 106.479 189.94C105.146 191.174 105.777 193.627 107.16 194.275C107.798 194.574 108.435 194.878 109.052 195.22C109.275 195.343 109.435 195.582 109.624 195.769C109.394 195.775 109.164 195.781 108.934 195.787C107.458 195.826 106.35 195.143 105.523 193.956C104.277 192.167 104.938 190.418 106.406 189.019C106.544 188.887 106.669 188.741 106.811 188.613C106.993 188.447 107.185 188.294 107.373 188.135C107.008 188.088 106.605 187.918 106.284 188.017C105.086 188.389 104.406 189.39 104.042 190.485C102.793 194.247 105.746 197.293 109.096 196.901C109.45 196.86 109.832 197.068 110.201 197.16C110.112 197.215 110.03 197.292 109.934 197.324C107.129 198.238 104.739 197.202 103.384 194.492C103.291 194.305 103.163 194.136 103.051 193.862C102.403 190.54 103.787 188.062 106.825 187.071C107.223 186.941 107.72 186.84 108.086 186.969ZM111.502 183.198C110.907 183.335 110.698 183.977 111.013 184.547C111.444 185.327 112.108 185.356 112.908 185.277C114.172 185.152 115.458 185.055 116.717 185.162C118.314 185.298 119.884 185.734 121.48 185.885C122.809 186.011 124.159 185.911 125.596 185.813C126.158 185.781 126.719 185.739 127.28 185.719C127.956 185.694 128.342 185.153 127.978 184.575C127.755 184.22 127.294 183.85 126.902 183.802C125.262 183.597 123.608 183.476 121.956 183.392C120.788 183.332 119.612 183.427 118.444 183.37C116.675 183.282 114.911 183.097 113.143 183.006C112.599 182.978 112.037 183.075 111.502 183.198ZM199.038 176.173C200.992 176.211 202.94 176.527 204.89 176.73C205.036 176.745 205.193 176.791 205.314 176.87C205.569 177.036 205.803 177.234 206.046 177.419C205.736 177.449 205.426 177.488 205.116 177.509C203.171 177.643 201.227 177.784 199.28 177.891C198.957 177.909 198.621 177.701 198.298 177.718C196.287 177.826 194.279 177.985 192.268 178.086C191.816 178.109 191.351 177.893 190.899 177.916C188.952 178.016 187.009 178.178 185.062 178.283C184.707 178.303 184.339 178.093 183.983 178.111C181.973 178.217 179.964 178.376 177.954 178.479C177.533 178.501 177.101 178.286 176.681 178.308C174.735 178.41 172.791 178.572 170.845 178.676C170.457 178.696 170.057 178.484 169.669 178.504C167.658 178.608 165.65 178.766 163.639 178.872C163.283 178.891 162.916 178.681 162.56 178.7C160.549 178.806 158.541 178.961 156.53 179.069C156.207 179.086 155.871 178.879 155.548 178.896C153.537 179.004 151.529 179.163 149.518 179.264C149.065 179.286 148.601 179.07 148.149 179.094C146.202 179.194 144.259 179.355 142.312 179.461C141.957 179.48 141.589 179.27 141.233 179.289C139.223 179.395 137.214 179.553 135.204 179.657C134.815 179.677 134.416 179.465 134.028 179.485C132.049 179.589 130.073 179.749 128.095 179.853C127.707 179.873 127.307 179.661 126.919 179.682C124.908 179.786 122.9 179.945 120.889 180.049C120.501 180.07 120.101 179.857 119.713 179.878C117.767 179.982 115.823 180.14 113.877 180.246C113.521 180.265 113.154 180.055 112.798 180.074C110.787 180.18 108.779 180.333 106.768 180.443C106.477 180.459 106.173 180.252 105.882 180.27C104.224 180.371 102.569 180.527 100.911 180.63C99.7818 180.701 98.6458 180.67 97.5201 180.768C95.9117 180.907 94.2999 181.061 92.7083 181.325C91.4631 181.532 90.2566 181.981 89.0107 182.178C88.6597 182.234 88.1423 181.853 87.8787 181.526C87.7671 181.388 88.0183 180.751 88.2683 180.545C89.2934 179.702 90.5268 179.559 91.9 179.669C92.7547 179.604 93.513 179.542 94.2705 179.472C95.6467 179.344 97.0201 179.171 98.3989 179.091C100.218 178.984 102.042 178.889 103.863 178.898C106.921 178.913 109.978 179.058 113.036 179.066C115.309 179.073 117.582 178.954 119.855 178.883C121.773 178.824 123.691 178.752 125.61 178.688C127.625 178.621 129.64 178.558 131.655 178.491C133.573 178.428 135.493 178.381 137.41 178.29C139.689 178.182 141.966 178.018 144.246 177.916C144.731 177.894 145.226 178.106 145.712 178.088C148.604 177.981 151.494 177.834 154.385 177.71C154.911 177.688 155.441 177.737 155.965 177.701C157.686 177.585 159.403 177.428 161.125 177.327C161.512 177.305 161.913 177.52 162.3 177.498C164.053 177.396 165.803 177.236 167.557 177.13C167.879 177.111 168.216 177.322 168.539 177.302C170.26 177.197 171.977 177.036 173.699 176.935C174.086 176.912 174.487 177.128 174.874 177.105C176.627 177.004 178.377 176.84 180.13 176.739C180.518 176.716 180.919 176.932 181.306 176.909C182.995 176.808 184.68 176.641 186.369 176.543C186.789 176.518 187.222 176.737 187.641 176.712C189.33 176.614 191.016 176.452 192.704 176.345C192.995 176.327 193.299 176.535 193.59 176.518C195.407 176.41 197.225 176.137 199.038 176.173ZM199.005 80C203.265 80.394 207.277 81.7587 210.971 83.8671C213.141 85.1062 215.16 86.6386 217.137 88.1791C220.204 90.5688 222.613 93.5629 224.693 96.8276C226.244 99.2625 227.601 101.805 228.406 104.574C229.138 107.091 229.793 109.65 230.202 112.235C230.497 114.101 230.322 116.04 230.377 117.946C230.433 119.894 230.229 121.816 230.022 123.753C229.515 128.484 228.628 133.118 227.299 137.688C226.722 139.672 227.138 141.724 227.516 143.732C227.848 145.492 228.458 147.136 229.394 148.664C229.507 148.849 229.498 149.107 229.546 149.331C229.306 149.315 229.053 149.343 228.828 149.277C227.204 148.803 226.677 147.479 226.29 146.029C226.012 144.988 225.761 143.926 225.337 142.943C224.852 141.818 224.663 141.925 223.598 142.455C221.406 143.547 219.177 144.583 216.901 145.488C213.819 146.715 210.577 147.35 207.298 147.864C205.518 148.143 203.72 148.685 202.38 149.984C201.757 150.588 201.274 151.446 201.008 152.277C200.676 153.319 200.6 154.416 201.219 155.494C201.586 156.133 201.971 156.241 202.582 156.073C205.544 155.258 208.485 154.354 211.475 153.659C213.771 153.125 216.139 152.902 218.459 152.457C220.866 151.995 223.29 151.882 225.728 151.893C225.912 151.894 226.095 151.942 226.278 151.968C226.112 152.006 225.947 152.048 225.78 152.082C223.513 152.546 221.245 153.001 218.98 153.474C216.928 153.903 214.881 154.358 212.829 154.788C210.535 155.269 208.233 155.712 205.945 156.216C204.828 156.462 203.711 156.746 202.635 157.125C201.133 157.655 200.661 158.587 200.578 160.29C200.485 162.207 200.816 164.002 201.277 165.781C202.106 168.975 203.525 171.887 205.819 174.35C207.748 176.42 209.923 178.097 212.688 178.811C214.179 179.196 215.738 179.439 217.276 179.497C219.193 179.57 221.057 179.211 222.876 178.447C225.154 177.489 226.914 175.984 228.22 173.97C229.655 171.757 230.598 169.31 230.939 166.69C231.221 164.514 231.516 162.317 231.499 160.132C231.474 156.981 230.821 153.907 229.603 150.973C229.527 150.791 229.231 150.533 229.812 150.517C231.349 150.472 232.874 151.873 232.895 153.47C232.913 154.931 232.962 156.395 232.885 157.853C232.744 160.493 235.565 163.944 237.889 164.54C238.397 164.67 238.443 164.49 238.319 164.227C236.902 161.229 237.772 158.299 238.613 155.402C240.238 149.81 242.466 144.436 244.696 139.062C246.878 133.806 248.972 128.515 251.09 123.234C252.886 118.754 254.654 114.263 256.449 109.783C258.178 105.469 259.925 101.162 261.666 96.8534C261.722 96.7154 261.813 96.5916 261.868 96.4533C261.971 96.1911 262.06 95.923 262.154 95.6574C261.884 95.8404 261.549 95.9716 261.352 96.2141C259.026 99.0833 256.86 102.096 254.371 104.816C251.71 107.723 248.822 110.436 245.896 113.084C243.806 114.975 241.491 116.621 239.273 118.371C239.065 118.535 238.825 118.658 238.6 118.8C238.622 118.539 238.669 118.276 238.66 118.015C238.592 116.015 240.45 115.835 241.567 114.962C243.249 113.647 244.998 112.411 246.624 111.031C249.654 108.46 252.066 105.322 254.522 102.231C255.186 101.395 255.898 100.597 256.636 99.7329C258.79 97.3949 260.816 95.0265 263.024 92.8391C264.959 90.9209 267.111 89.2438 269.828 88.4545C271.04 88.1025 273.243 88.9103 274.058 90.1877C274.908 91.5205 275.247 92.9822 275.243 94.5712C275.234 97.8698 274.562 101.065 273.865 104.26C273.104 107.746 272.366 111.238 271.519 114.703C271.022 116.735 270.437 118.76 269.705 120.719C267.964 125.38 266.196 130.035 264.27 134.621C263.175 137.232 261.82 139.744 260.442 142.223C259.678 143.597 258.55 144.645 256.735 144.562C255.991 144.528 255.513 145.394 255.411 146.45C255.262 147.985 255.135 149.534 254.818 151.04C254.177 154.088 252.81 156.86 251.171 159.486C249.932 161.47 248.556 163.368 247.277 165.328C246.392 166.686 245.22 167.781 243.614 167.866C242.608 167.919 241.561 167.281 240.54 166.932C240.374 166.875 240.228 166.72 240.107 166.581C239.606 166.009 239.221 165.163 238.597 164.921C238.014 164.694 237.165 165.265 236.462 165.195C235.261 165.074 234.256 164.451 233.522 163.448C233.379 163.252 233.216 162.797 233.06 163.545C232.637 165.575 232.101 167.585 231.53 169.579C230.488 173.214 228.559 176.34 225.612 178.72C223.785 180.195 221.68 181.171 219.214 181.307C216.713 181.444 214.471 180.766 212.233 179.772C209.065 178.364 206.282 176.446 203.681 174.169C199.95 170.904 197.122 166.991 195.18 162.5C194.094 159.988 193.457 157.275 192.721 154.623C191.98 151.952 191.047 149.389 189.514 147.046C188.125 144.923 187.112 142.602 186.728 140.089C186.6 139.252 186.885 138.32 187.113 137.466C187.568 135.767 187.819 134.052 187.435 132.332C187.243 131.475 186.719 130.697 186.415 129.858C185.196 126.493 183.914 123.146 182.834 119.737C182.089 117.386 181.573 114.955 181.078 112.535C180.761 110.986 180.662 109.392 180.474 107.817C180.337 106.667 180.169 105.52 180.095 104.366C179.988 102.709 180.011 101.042 179.876 99.3877C179.702 97.2538 180.019 95.1405 180.544 93.135C181.057 91.1734 182.06 89.3136 183.021 87.5001C184.135 85.3989 185.66 83.5949 187.723 82.3176C189.565 81.1769 191.532 80.3295 193.717 80.1691C195.477 80.0401 197.262 79.8388 199.005 80ZM184.986 131.491C184.863 131.693 184.789 131.983 184.61 132.082C183.563 132.661 182.515 133.249 181.423 133.733C179.569 134.553 177.682 135.297 175.712 136.073C172.633 137.444 169.589 138.697 166.686 140.219C163.794 141.734 161.105 143.594 158.594 145.723C154.92 148.838 151.955 152.494 150.039 156.907C149.257 158.71 148.72 160.686 148.459 162.636C148.113 165.215 148.156 167.845 148.016 170.453C147.899 172.641 147.769 174.829 147.626 177.016C147.573 177.841 146.931 177.229 146.594 177.379C146.567 177.391 146.288 177.059 146.305 176.906C146.466 175.452 146.758 174.006 146.834 172.548C146.929 170.711 146.842 168.864 146.86 167.022C146.894 163.491 147.567 160.102 149.036 156.871C150.403 153.862 152.248 151.198 154.438 148.731C157.742 145.009 161.698 142.16 166.012 139.76C170.092 137.49 174.321 135.551 178.699 133.927C180.599 133.222 182.448 132.382 184.325 131.616C184.528 131.533 184.765 131.531 184.986 131.491ZM236.781 174.219C238.458 174.455 240.128 174.748 241.803 174.999C242.825 175.153 243.849 175.344 244.877 175.39C246.384 175.456 247.897 175.382 249.406 175.415C250.512 175.44 251.617 175.534 252.721 175.611C253.504 175.666 254.284 175.789 255.066 175.801C256.877 175.83 258.689 175.83 260.499 175.807C264.742 175.752 268.984 175.632 273.225 175.639C274.31 175.64 275.393 176.013 276.477 176.213C276.54 176.224 276.632 176.185 276.667 176.219C276.915 176.455 277.152 176.704 277.392 176.949C277.078 176.973 276.765 177.018 276.451 177.018C274.305 177.025 272.16 177.04 270.014 177.013C269.167 177.002 268.322 176.85 267.475 176.827C264.365 176.742 261.255 176.679 258.145 176.621C257.034 176.601 255.923 176.618 254.716 176.618C253.325 176.618 252.031 176.642 250.738 176.612C248.759 176.567 246.782 176.451 244.803 176.424C242.302 176.39 239.799 176.464 237.3 176.395C236.129 176.363 234.96 176.136 233.799 175.94C233.151 175.831 232.999 175.23 233.215 174.741C233.363 174.403 233.86 174.049 234.217 174.031C235.067 173.987 235.931 174.1 236.781 174.219ZM187.135 133.717C187.066 133.755 186.976 133.777 186.931 133.834C185.519 135.618 183.948 137.304 182.742 139.218C181.122 141.79 179.784 144.545 178.984 147.506C178.552 149.107 178.239 150.74 177.863 152.356C177.616 153.416 177.057 154.292 176.141 154.879C174.925 155.659 173.636 156.329 172.438 157.134C169.454 159.138 167.563 161.976 166.462 165.343C165.846 167.226 165.457 169.154 165.814 171.172C166.03 172.398 166.121 173.647 166.256 174.887C166.278 175.085 166.237 175.289 166.225 175.49C165.963 175.466 165.576 175.541 165.463 175.4C165.156 175.011 164.823 174.553 164.753 174.084C164.544 172.686 164.461 171.269 164.315 169.861C164.285 169.567 164.197 169.279 164.135 168.989C163.874 169.279 163.575 169.543 163.358 169.863C161.91 171.997 160.483 174.147 159.032 176.279C158.926 176.435 158.677 176.495 158.494 176.599C158.447 176.273 158.255 175.872 158.379 175.635C158.839 174.755 159.341 173.884 159.939 173.094C161.337 171.244 162.923 169.524 164.193 167.594C165.031 166.322 165.484 164.79 166.052 163.352C166.634 161.879 167.552 160.674 168.739 159.649C170.237 158.356 171.727 157.054 173.269 155.708C174.317 154.598 175.438 153.623 176.286 152.452C177.404 150.907 177.802 149.023 178.254 147.19C179.212 143.311 180.916 139.794 183.432 136.679C184.059 135.904 184.653 135.089 185.368 134.402C185.756 134.028 186.364 133.88 186.88 133.646C186.942 133.618 187.049 133.691 187.135 133.717ZM47.0355 99.3291C48.1187 99.6094 48.2753 100.551 47.4468 101.27C45.5654 102.903 44.6702 104.987 44.5323 107.408C44.4561 108.745 44.5814 110.093 44.5072 111.431C44.2625 115.839 45.5498 119.897 47.4563 123.768C49.2789 127.469 51.9328 130.517 55.741 132.298C57.926 133.319 60.2627 134.036 62.5638 134.792C64.5626 135.448 66.6107 135.955 68.6307 136.549C70.6125 137.132 72.5646 137.66 74.6644 136.96C75.7415 136.601 76.5497 137.564 76.1372 138.608C74.5774 142.556 73.2483 146.654 70.5082 149.982C68.8647 151.979 66.963 153.827 64.9288 155.43C61.9425 157.784 58.5086 159.462 55.0786 161.115C51.7331 162.727 48.4629 164.496 45.1026 166.076C41.317 167.855 37.4808 169.531 33.642 171.196C30.545 172.539 27.4185 173.816 24.2889 175.083C23.5406 175.385 22.739 175.598 21.9414 175.73C21.1423 175.862 19.3868 174.609 19.0732 173.781C18.2773 171.68 17.7363 169.518 17.5129 167.278C17.3769 165.915 17.1939 164.557 16.9835 163.196C16.9349 163.1 16.9349 163.003 16.9835 162.858C17.0644 160.994 17.0984 159.178 17.1209 157.362C17.1215 157.312 16.9997 157.26 16.9349 157.21V156.485C16.9673 156.437 17.028 156.438 17.028 156.437C17.0892 154.756 17.1412 153.074 17.2065 151.394C17.2276 150.85 17.289 150.309 17.3225 149.766C17.601 145.26 18.1364 140.781 19.2898 136.412C20.2102 132.925 21.4255 129.534 22.9026 126.221C24.5875 122.442 26.636 118.889 28.9963 115.511C30.1988 113.789 31.5123 112.131 32.9098 110.562C34.5912 108.674 36.3188 106.805 38.2032 105.124C40.3545 103.204 42.6663 101.455 44.988 99.7381C45.5049 99.3558 46.4186 99.1695 47.0355 99.3291ZM44.2125 101.978C44.1034 102.027 43.98 102.057 43.8873 102.128C40.9683 104.34 38.067 106.575 35.6498 109.351C34.1483 111.076 32.6134 112.777 31.1957 114.568C27.7502 118.922 25.0839 123.72 23.0538 129.014C22.9849 129.212 22.9049 129.406 22.8487 129.607C21.9764 132.723 21.0534 135.827 20.2618 138.964C19.9106 140.356 19.8098 141.812 19.6256 143.242C19.4228 144.817 19.197 146.391 19.0897 147.973C19.0012 149.277 19.1204 150.593 19.0583 151.899C18.9813 153.522 18.7569 155.138 18.7025 156.761C18.6658 157.857 18.8427 158.959 18.8697 160.059C18.9023 161.389 18.8526 162.721 18.8852 164.05C18.9119 165.141 18.9381 166.239 19.0893 167.317C19.2744 168.636 19.6043 169.935 19.8452 171.248C20.193 173.143 20.9717 173.876 22.8274 174.011C24.128 174.105 25.1165 173.336 25.2986 172.118C25.3207 171.97 25.5539 171.712 25.5842 171.726C27.2239 172.496 28.6471 171.721 30.0841 171.111C33.1374 169.815 36.2045 168.549 39.2272 167.186C43.7248 165.157 48.2038 163.087 52.6607 160.972C54.7459 159.982 56.7937 158.903 58.801 157.765C62.7185 155.543 66.2995 152.909 69.1998 149.405C71.4476 146.69 72.8371 143.603 73.6423 140.225C73.7953 139.584 73.57 139.027 72.8031 138.862C70.724 138.416 68.6499 137.946 66.5677 137.515C62.3356 136.639 58.2447 135.418 54.4413 133.282C49.5576 130.539 46.4292 126.396 44.5505 121.278C43.6593 118.85 42.9434 116.334 42.9619 113.69C42.9758 111.705 42.801 109.703 43.0125 107.74C43.208 105.926 43.8075 104.156 44.2218 102.365C44.2499 102.243 44.217 102.107 44.2125 101.978ZM125.645 130.666C126.803 131.461 127.947 132.276 129.069 133.121C129.373 133.35 129.397 133.578 129.535 132.979C129.75 132.042 131.083 131.781 131.881 132.446C133.711 133.972 134.635 136.025 135.304 138.256C135.885 140.192 135.655 142.16 135.712 144.116C135.748 145.371 136.924 146.318 138.158 146.368C139.07 146.406 140.03 146.806 140.85 147.259C142.836 148.354 144.113 150.082 144.741 152.26C145.417 154.604 144.788 156.692 143.429 158.64C142.193 160.412 141.067 162.267 139.274 163.566C138.281 164.285 137.138 164.882 136.361 165.789C135.527 166.764 134.57 167.4 133.434 167.838C130.635 168.918 127.578 167.517 126.208 165.184C124.973 163.082 122.001 163.544 120.849 165.248C120.346 165.991 120.208 166.972 119.832 167.813C119.602 168.329 119.826 168.251 120.171 168.2C121.881 167.945 123.593 167.702 125.305 167.46C125.393 167.448 125.487 167.482 125.578 167.495C125.51 167.547 125.448 167.608 125.374 167.649C123.676 168.608 121.839 169.15 119.917 169.379C118.462 169.553 116.973 169.831 115.538 169.684C114.407 169.568 113.256 169.007 112.257 168.405C111.079 167.696 110.726 166.491 110.748 165.084C110.793 162.351 111.841 160.044 113.572 158.045C114.071 157.47 114.951 157.227 115.651 156.824C115.918 156.67 116.305 156.651 115.835 156.157C113.779 153.997 111.953 151.659 110.704 148.921C110.507 148.489 110.303 148.043 110.217 147.582C110.164 147.299 110.243 146.895 110.427 146.699C110.542 146.576 111.002 146.665 111.234 146.792C111.582 146.982 111.858 147.3 112.18 147.545C112.728 147.962 113.033 147.784 112.884 147.134C112.462 145.287 112.85 143.534 113.5 141.84C113.85 140.926 114.42 140.092 114.949 139.259C114.999 139.18 115.508 139.3 115.73 139.443C116.14 139.709 116.496 140.06 116.875 140.375C116.9 139.87 116.908 139.364 116.958 138.861C116.987 138.563 117.06 138.264 117.151 137.977C117.604 136.538 117.848 136.466 119.048 137.368C119.209 137.489 119.402 137.567 119.58 137.666L119.632 137.3C119.64 137.239 119.647 137.178 119.652 137.116C119.785 135.535 119.468 134.101 118.312 132.927C118.299 132.913 118.55 132.501 118.694 132.489C120.358 132.359 122.024 132.29 123.546 133.179C123.858 133.361 124.168 133.544 124.527 133.775C124.672 133.643 124.834 133.47 124.854 133.282C124.944 132.431 124.985 131.574 125.083 130.724C125.088 130.678 125.521 130.581 125.645 130.666ZM114.554 158.195C114.517 158.265 114.492 158.348 114.44 158.404C112.546 160.404 111.662 162.779 111.732 165.533C111.77 167.029 112.568 168.131 114.064 168.403C115.014 168.577 116.001 168.569 116.972 168.596C117.09 168.599 117.281 168.325 117.326 168.15C117.613 167.038 117.592 165.797 118.785 164.944C119.117 164.815 119.451 164.688 119.783 164.557C119.934 164.498 120.201 164.444 120.208 164.369C120.222 164.211 120.146 163.965 120.024 163.889C119.698 163.687 119.34 163.465 118.973 163.414C117.279 163.178 116.077 162.285 115.387 160.748C115.059 160.017 114.881 159.219 114.635 158.451C114.607 158.366 114.581 158.28 114.554 158.195ZM119.074 165.621C118.946 166.108 118.798 166.592 118.707 167.086C118.691 167.168 118.951 167.406 119.026 167.383C119.334 167.29 119.433 165.812 119.074 165.621ZM126.098 131.718C126.202 132.073 126.349 132.422 126.401 132.784C126.519 133.606 126.448 134.392 125.641 134.877C124.995 135.264 124.512 134.799 124.073 134.459C123.076 133.688 121.898 133.587 120.728 133.441C120.089 133.36 120.06 133.623 120.269 134.173C120.576 134.982 120.958 135.842 120.934 136.669C120.919 137.187 120.256 137.723 119.814 138.183C119.401 138.613 119.006 138.41 118.68 137.986C118.63 137.92 118.469 137.941 118.359 137.922C118.367 138.097 118.344 138.279 118.387 138.444C118.643 139.427 118.276 140.376 117.246 140.941C116.533 141.332 116.03 140.736 115.596 140.274C115.27 139.926 115.24 140.137 115.102 140.402C113.898 142.705 113.761 145.114 114.399 147.59C114.558 148.205 114.275 148.512 113.767 148.488C113.175 148.461 112.595 148.228 112.005 148.11C111.731 148.055 111.446 148.059 111.166 148.037C111.242 148.306 111.277 148.596 111.401 148.842C112.422 150.874 113.735 152.712 115.44 154.206C116.445 155.087 117.062 155.86 117.032 157.38C116.993 159.366 118.049 160.989 119.882 162.069C121.342 162.929 122.894 162.749 124.434 162.802C125.223 162.829 125.796 163.102 126.265 163.726L126.451 163.976C127.413 165.266 128.364 166.551 130.085 167.002C132.026 167.511 133.801 167.307 135.297 165.939C135.609 165.654 135.612 164.974 135.626 164.471C135.628 164.38 134.997 164.219 134.648 164.18C133.254 164.025 131.852 164.378 130.445 163.997C128.456 163.459 126.629 162.667 125.123 161.233C124.839 160.962 124.6 160.644 124.34 160.348C124.798 160.456 125.257 160.56 125.713 160.675C125.828 160.703 125.958 160.737 126.04 160.812C128.17 162.775 130.67 163.631 133.56 163.403C136.493 163.171 138.003 161.632 138.155 159.058C138.311 156.4 137.798 153.826 136.575 151.416C136.398 151.068 136.399 150.584 136.442 150.176C136.608 148.591 137.006 146.991 135.304 145.863C135.019 145.674 134.939 145.04 134.92 144.604C134.862 143.313 134.455 142.831 133.194 142.714C132.425 142.642 131.994 142.182 131.819 141.46C131.768 141.251 131.77 141.029 131.748 140.812C131.544 140.997 131.284 141.147 131.143 141.372C130.43 142.513 129.366 143.22 128.248 143.903C127.681 144.249 127.498 144.209 127.358 143.568C127.292 143.266 127.047 143.004 126.883 142.724C126.725 142.949 126.561 143.169 126.411 143.398C126.212 143.701 126.072 144.059 125.822 144.308C124.929 145.196 124.027 146.079 123.065 146.888C122.855 147.064 122.227 147.067 122.067 146.895C121.857 146.667 121.885 146.188 121.875 145.815C121.865 145.444 121.957 145.071 121.959 144.699C121.96 144.554 121.845 144.29 121.77 144.285C121.611 144.276 121.364 144.354 121.292 144.477L120.913 145.115C120.535 145.753 120.163 146.397 119.859 147.07C119.043 148.873 118.709 150.788 118.664 152.767C118.658 153.046 118.361 153.346 118.137 153.576C118.061 153.655 117.666 153.596 117.642 153.525C117.537 153.212 117.456 152.868 117.478 152.543C117.513 152.028 117.646 151.52 117.722 151.007C118.179 147.908 119.521 145.272 121.836 143.152C121.921 143.074 122.217 143.069 122.222 143.086C122.433 143.805 122.629 144.528 122.806 145.255C122.846 145.42 122.809 145.603 122.808 145.777C122.963 145.706 123.137 145.66 123.271 145.561C124.735 144.477 125.907 143.143 126.748 141.516C126.951 141.124 127.234 140.774 127.48 140.404L127.912 141.191C128.056 141.454 128.197 141.717 128.332 141.984C128.384 142.087 128.302 142.256 128.352 142.361C128.389 142.439 128.606 142.527 128.63 142.502C129.378 141.729 130.097 140.927 130.857 140.167C131.148 139.875 131.697 139.395 131.836 139.48C132.287 139.756 132.619 140.242 132.961 140.676C133.039 140.775 132.913 141.026 132.985 141.142C133.117 141.353 133.4 141.703 133.493 141.667C133.963 141.485 134.435 141.247 134.813 140.922C134.965 140.792 134.88 140.386 134.806 140.009C134.417 137.544 133.444 135.365 131.667 133.58C131.556 133.467 131.44 133.359 131.327 133.248C131.296 133.397 131.266 133.545 131.235 133.693C131.066 134.512 130.185 135.004 129.55 134.509C128.749 133.884 128.113 133.05 127.346 132.373C127.004 132.071 126.519 131.932 126.098 131.718ZM193.952 151.905C193.883 151.973 193.767 152.034 193.754 152.111C193.709 152.388 193.642 152.68 193.686 152.95C193.924 154.425 194.225 155.891 194.446 157.369C194.832 159.946 195.477 162.449 196.809 164.705C197.281 165.505 198.048 166.134 198.691 166.831C198.764 166.91 198.906 166.925 199.017 166.97C199.012 166.901 199.015 166.832 199.002 166.765C198.846 165.96 198.784 165.12 198.511 164.356C197.859 162.534 197.106 160.748 196.297 158.85C195.812 157.536 195.299 156.231 194.851 154.904C194.542 153.991 194.324 153.047 194.062 152.118C194.041 152.043 193.989 151.976 193.952 151.905ZM245.895 147.576C245.892 147.664 245.707 147.737 245.622 147.831C245.389 148.086 245.118 148.32 244.944 148.612C243.032 151.82 242.027 155.353 241.25 158.965C241.043 159.923 240.859 160.886 240.665 162.041C240.601 162.593 240.47 163.148 240.488 163.698C240.509 164.338 240.503 165.054 240.785 165.594C241.574 167.109 243.691 167.066 244.989 166.268C246.191 165.53 246.769 164.34 247.42 163.217C248.529 161.302 249.456 159.279 250.608 157.392C252.176 154.826 253.722 152.27 254.429 149.306C254.642 148.415 254.187 147.807 253.236 147.834C250.996 147.899 248.82 147.457 246.64 147.049C245.907 146.911 245.924 146.873 245.895 147.576ZM137.578 147.174C137.191 148.841 137.439 150.432 137.919 152.005C138.618 154.296 139.38 156.57 139.146 159.019C138.983 160.732 138.213 162.085 136.741 163.031C136.515 163.176 136.413 163.516 136.254 163.766C136.552 163.828 136.852 163.944 137.148 163.932C137.33 163.925 137.526 163.749 137.678 163.607C138.767 162.595 139.988 161.683 140.889 160.522C141.795 159.356 142.381 157.939 143.203 156.536C143.392 155.638 143.614 154.746 143.762 153.842C144.092 151.813 143.076 149.861 141.225 149.171C140.013 148.72 138.686 148.552 138.171 147.08C138.087 146.84 137.773 146.335 137.578 147.174ZM78.9455 103.165C81.3114 103.446 83.6938 103.884 85.9637 104.595C88.3965 105.357 90.5279 106.806 92.253 108.716C94.6047 111.319 96.139 114.344 96.8208 117.819C97.1095 119.29 97.2003 120.751 97.1724 122.23C97.1548 123.168 97.058 124.106 96.987 125.043C96.8353 127.048 97.3383 128.955 97.8357 130.864C98.3452 132.821 98.1597 134.782 97.9802 136.768C97.715 139.703 96.6109 142.359 95.4129 144.97C94.6417 146.652 93.5975 148.212 92.6243 149.795C91.8011 151.134 90.9041 152.428 89.9914 153.79C88.7605 155.728 87.559 157.606 86.4038 159.512C85.8945 160.352 85.4802 161.25 85.0202 162.12C84.9641 162.226 84.908 162.339 84.8256 162.424C84.5402 162.716 84.2431 162.996 83.9505 163.281C83.9229 162.865 83.7584 162.399 83.8893 162.04C84.9362 159.171 86.5495 156.611 88.2991 154.125C90.4174 151.116 92.6681 148.188 94.1701 144.791C95.157 142.559 95.9357 140.263 96.2105 137.826C96.3698 136.414 96.5484 134.997 96.581 133.58C96.6133 132.172 96.4753 130.76 96.4034 129.351C96.3999 129.281 96.2781 129.153 96.2714 129.157C96.1139 129.247 95.9326 129.324 95.8192 129.458C95.2165 130.168 94.6412 130.901 94.0378 131.61C92.5045 133.413 90.6375 134.625 88.2811 135.15C85.9536 135.668 83.9968 134.991 82.3431 133.474C80.2476 131.552 80.2791 129.201 81.7209 126.975C83.0398 124.939 84.9511 123.86 87.4095 123.514C89.813 123.176 91.9948 123.844 94.1769 124.556C94.983 124.819 95.4796 125.101 95.5179 123.961C95.5613 122.669 95.4815 121.361 95.6661 120.09C95.9035 118.457 95.334 117.031 94.8734 115.548C93.9621 112.613 92.2012 110.317 89.8453 108.374C88.0379 106.883 86.0102 105.859 83.7992 105.258C81.5166 104.638 79.2001 104.354 76.7719 104.6C72.8379 104.999 69.4196 106.505 66.3136 108.808C64.1134 110.439 62.4012 112.552 60.8839 114.825C60.6577 115.163 60.2844 115.403 59.9804 115.691C59.6006 116.049 59.0941 116.153 58.8229 115.733C58.6171 115.415 58.5423 114.735 58.7437 114.476L59.2118 113.872C60.15 112.663 61.1068 111.456 62.2215 110.427C63.5868 109.167 65.1516 108.106 66.7018 107.066C69.2929 105.329 72.1321 104.159 75.2358 103.684C76.4752 103.494 77.7465 103.022 78.9455 103.165ZM116.224 159.584C116.209 159.706 116.169 159.832 116.183 159.951C116.314 161.059 117.04 161.793 117.862 162.408C118.137 162.613 118.619 162.542 119.006 162.597C118.802 162.282 118.61 161.958 118.388 161.656C118.256 161.477 118.075 161.334 117.916 160.982C117.443 160.572 116.971 160.161 116.495 159.755C116.414 159.686 116.315 159.64 116.224 159.584ZM268.837 90.878C267.8 91.7404 266.77 92.6135 265.786 93.5342C264.173 95.0445 263.151 96.9772 262.306 98.9572C260.529 103.121 258.886 107.341 257.204 111.544C254.726 117.739 252.262 123.939 249.791 130.331C249.662 130.536 249.495 130.726 249.408 130.947C247.837 134.939 246.282 138.936 244.711 142.928C243.5 146.005 242.215 149.054 241.071 152.155C240.012 155.022 239.327 157.998 238.928 161.031C238.889 161.323 238.988 161.633 239.023 161.935C239.053 161.679 239.042 161.408 239.126 161.17C239.182 161.01 239.439 160.918 239.49 160.759C240.475 157.716 241.378 154.646 242.435 151.629C243.162 149.552 244.075 147.539 244.946 145.514C245.353 144.568 245.715 144.477 246.629 144.929C247.246 145.234 247.874 145.52 248.477 145.851C249.431 146.374 250.441 146.572 251.518 146.477C252.286 146.408 253.247 145.522 253.265 144.697C253.284 143.89 252.925 143.243 251.99 143.158C251.405 143.105 250.807 143.133 250.235 143.022C249.813 142.94 249.424 142.691 249.02 142.517C249.283 142.316 249.528 142.08 249.816 141.926C249.995 141.831 250.241 141.86 250.457 141.835C251.903 141.668 253.13 142.36 254.4 142.855C256.689 143.747 257.979 143.577 259.142 142.05C259.767 141.23 260.186 140.235 260.599 139.277C262.474 134.928 264.464 130.62 266.125 126.19C267.844 121.607 269.445 116.958 270.703 112.234C272.057 107.151 273.541 102.062 273.802 96.75C273.875 95.2873 273.749 93.8714 273.331 92.427C272.657 90.1018 270.462 89.5253 268.837 90.878ZM189.264 137.431C189.181 137.59 189.076 137.742 189.019 137.909C188.292 140.064 188.406 142.221 189.412 144.215C190.466 146.304 191.756 148.274 192.955 150.288C193.006 150.374 193.175 150.389 193.29 150.438C193.326 150.282 193.429 150.108 193.39 149.974C193.046 148.798 192.656 147.635 192.335 146.453C192.268 146.21 192.341 145.803 192.511 145.651C192.763 145.427 193.185 145.21 193.49 145.261C194.369 145.407 195.099 146.452 195.185 147.495C195.328 149.217 195.379 150.953 195.639 152.658C196.058 155.399 197.139 157.938 198.34 160.423C198.405 160.558 198.532 160.662 198.63 160.781C198.726 160.627 198.868 160.485 198.91 160.318C199.061 159.733 199.089 159.102 199.323 158.556C200.148 156.633 200.135 154.784 199.125 152.922C198.572 151.903 198.142 150.818 197.559 149.666C197.148 148.483 196.953 147.156 196.276 146.152C195.232 144.602 193.825 143.3 192.633 141.843C191.581 140.557 190.612 139.203 189.607 137.88L189.264 137.431ZM134.15 155.785C134.372 156.163 134.542 156.514 134.823 156.719C135.877 157.489 135.759 159.565 134.721 160.204C134.489 160.347 134.088 160.227 133.765 160.228C133.765 159.965 133.684 159.671 133.778 159.446C134.435 157.865 133.753 156.571 132.032 156.156C131.762 156.091 131.517 155.927 131.261 155.809C131.496 155.664 131.727 155.511 131.969 155.376C132.227 155.233 132.495 155.107 132.76 154.975C133.756 154.478 133.915 154.56 134.15 155.785ZM135.893 147.52C136.05 148.419 136.001 149.391 135.84 150.295C135.714 151.001 133.863 151.389 132.856 151.259C131.793 151.12 131.139 150.486 130.478 149.809C129.902 149.22 129.246 148.756 128.434 149.084C127.609 149.417 127.578 150.236 127.616 151.108C127.385 152.641 126.94 153.882 125.601 154.79C123.828 155.992 121.786 155.111 120.989 153.654C120.899 153.49 120.74 153.363 120.612 153.218C120.516 153.36 120.389 153.489 120.328 153.644C119.85 154.854 119.33 156.051 118.934 157.287C118.687 158.057 119.039 158.407 119.826 158.399C120.352 158.394 120.879 158.39 121.404 158.404C121.542 158.408 121.678 158.484 121.815 158.527C121.739 158.655 121.692 158.855 121.582 158.9C121.085 159.104 120.497 159.515 120.076 159.393C118.973 159.073 118.006 158.469 117.943 157.102C117.841 154.875 119.036 153.194 120.308 151.556C121.756 149.691 123.893 149.032 126.048 148.422C128.755 147.655 131.461 146.885 134.169 146.121C134.733 145.962 135.739 146.631 135.893 147.52ZM125.541 149.252C124.576 149.635 123.621 150.057 122.698 150.532C121.105 151.352 120.938 152.802 122.264 153.952C123.644 155.148 125.415 154.742 125.935 153.034C126.227 152.076 126.29 151.049 126.456 149.861C126.501 149.141 126.048 149.051 125.541 149.252ZM129.542 149.964C129.627 149.998 129.709 150.042 129.796 150.064C131.107 150.398 132.126 152.532 131.503 153.687C131.38 153.915 131.128 154.071 130.936 154.26C130.888 154.072 130.834 153.885 130.793 153.695C130.67 153.133 130.551 152.57 130.386 151.961C130.087 151.348 129.831 150.782 129.583 150.212C129.55 150.138 129.554 150.047 129.542 149.964ZM133.614 146.714C132.527 147.093 131.483 147.59 130.227 148.038C130.195 148.184 130.091 148.361 130.141 148.47C130.767 149.843 133.119 150.811 134.528 150.294C135.359 149.989 135.819 148.936 135.545 147.965C135.355 147.292 134.241 146.495 133.614 146.714ZM233.461 113.458C235.333 113.64 236.827 114.458 237.966 116.069C238.591 116.954 238.116 117.687 237.969 118.431C237.438 121.11 236.797 123.768 236.189 126.431C235.688 128.624 235.178 130.815 234.665 133.006C233.982 135.925 233.296 138.843 232.605 141.76C232.107 143.858 231.604 145.955 231.09 148.05C231.037 148.269 230.9 148.467 230.803 148.675C230.712 148.457 230.527 148.23 230.545 148.022C230.687 146.368 230.831 144.713 231.046 143.068C231.273 141.337 231.55 139.611 231.859 137.894C232.228 135.844 232.616 133.795 233.064 131.762C234.08 127.159 235.392 122.643 236.893 118.177C237.489 116.403 235.795 115.231 234.425 115.262C233.55 115.282 232.794 115.482 231.99 115.678C231.857 115.711 231.648 115.416 231.474 115.177C231.474 115.016 231.453 114.943 231.477 114.889C231.663 114.465 230.987 113.689 231.984 113.596C232.477 113.55 232.978 113.411 233.461 113.458ZM137.458 139.225C138.632 139.242 139.806 139.398 140.979 139.387C142.657 139.371 144.258 139.729 145.757 140.389C147.075 140.97 148.293 141.773 149.603 142.526C151.132 143.887 152.295 145.41 152.743 147.36C152.802 147.616 152.52 147.949 152.395 148.246C152.195 148.067 151.868 147.92 151.813 147.704C150.747 143.575 147.748 141.566 143.831 140.558C141.691 140.007 139.526 140.143 137.354 140.337C137.073 140.362 136.443 140.734 136.419 139.993C136.397 139.311 136.973 139.217 137.458 139.225ZM193.289 81.3661C189.474 81.9076 186.652 84.097 184.513 87.2405C182.183 90.6663 181.403 94.56 181.301 98.5611C181.228 101.418 181.57 104.293 181.854 107.148C182.066 109.281 182.368 111.419 182.837 113.508C183.427 116.142 184.241 118.726 184.936 121.337C186.097 125.704 187.56 129.968 189.415 134.088C191.391 138.479 193.99 142.458 197.641 145.675C198.82 146.714 200.186 147.464 201.776 147.622C203.755 147.819 205.677 147.446 207.57 146.867C211.619 145.628 215.711 144.515 219.719 143.159C223.38 141.92 225.66 139.264 226.473 135.492C227.082 132.664 227.597 129.811 228.023 126.949C228.385 124.515 228.68 122.057 228.783 119.601C228.861 117.722 228.615 115.828 228.472 113.943C228.363 112.507 228.189 111.076 228.044 109.449C227.572 106.59 226.716 103.854 225.589 101.179C223.876 97.1148 221.516 93.5386 218.326 90.4525C214.848 87.0884 210.692 84.9484 206.172 83.4766C203.621 82.6459 200.981 82.0347 198.339 81.5532C196.693 81.2534 194.934 81.1325 193.289 81.3661ZM79.6853 107.525C79.5718 107.703 79.4708 107.889 79.343 108.056C76.9693 111.143 74.4562 114.133 72.2516 117.337C69.6505 121.116 67.4771 125.164 65.7898 129.523C65.1327 130.889 64.5313 132.21 63.9115 133.523C63.5834 134.218 62.9011 134.131 62.4361 133.907C61.9326 133.665 61.9948 133.151 62.2963 132.612C64.7807 128.165 67.1652 123.662 69.7071 119.249C71.2662 116.542 72.9507 113.894 74.7702 111.357C75.7436 110 77.1163 108.928 78.3254 107.744C78.4861 107.587 78.7368 107.476 78.9606 107.442C79.1928 107.407 79.443 107.493 79.6853 107.525ZM86.0542 125.273C83.3926 125.979 82.0696 127.928 82.3001 130.49C82.4455 132.105 83.0845 133.139 84.6154 133.574C86.3702 134.074 88.1222 133.845 89.7746 133.18C92.145 132.227 94.0838 130.786 94.672 127.894C94.7335 127.115 94.5093 126.545 93.815 126.037C91.3547 124.239 88.7579 124.556 86.0542 125.273ZM141.539 74.5444C141.474 74.625 141.41 74.6572 141.345 74.7377C141.137 74.8316 140.879 74.8141 140.728 74.9318C136.965 77.8719 134.605 81.7128 133.365 86.2764C132.776 88.4436 132.509 90.6538 132.606 92.8832C132.778 96.8066 134.009 100.392 136.241 103.655C138.679 107.22 141.918 109.844 145.785 111.685C148.001 112.74 150.354 113.499 152.845 113.632C153.966 113.691 155.114 113.507 156.213 113.671C158.326 113.985 160.292 113.416 162.244 112.849C166.174 111.705 169.633 109.73 172.595 106.876C174.781 104.77 176.671 102.48 177.92 99.7033C177.944 99.6488 177.975 99.597 178.003 99.544C178.04 99.616 178.117 99.6931 178.108 99.7591C177.922 101.169 178.012 102.597 177.01 103.855C173.906 107.749 170.307 111.03 165.644 112.936C163.649 113.751 161.519 114.274 159.413 114.77C158.145 115.069 156.801 115.196 155.498 115.161C152.2 115.075 149.019 114.379 145.975 113.069C142.725 111.671 139.879 109.707 137.455 107.156C134.635 104.189 132.666 100.736 131.834 96.7217C131.503 95.1226 131.24 93.4698 131.262 91.8457C131.332 86.7721 132.824 82.0945 135.778 77.9414C136.583 76.8097 137.666 75.8694 138.648 74.8674C139.111 74.3952 141.167 74.1675 141.539 74.5444ZM145.686 74.5934C145.734 74.5991 145.777 74.6588 145.823 74.6933C145.738 74.7233 145.655 74.7567 145.57 74.7827C142.259 75.7936 139.9 77.9675 138.325 80.9774C137.359 82.822 136.836 84.8265 136.541 86.9172C135.942 91.1672 136.923 95.0803 138.963 98.727C141.484 103.232 145.049 106.661 149.983 108.436C151.556 109.003 153.183 109.61 154.825 109.759C158.767 110.115 162.554 109.408 166.064 107.433C168.68 105.96 170.83 103.989 172.758 101.702C174.995 99.0483 176.267 95.9556 177.058 92.6501C177.335 91.4914 177.216 90.2382 177.288 89.0288C177.302 88.8022 177.365 88.5785 177.405 88.3535C177.67 88.4903 178.079 88.5624 178.175 88.7756C178.515 89.5352 179.039 90.3732 178.961 91.1259C178.8 92.6732 178.412 94.2246 177.909 95.7031C176.604 99.5404 174.299 102.741 171.308 105.437C168.524 107.944 165.315 109.696 161.663 110.575C160.427 110.873 159.176 111.215 157.918 111.287C156.753 111.355 155.558 111.151 154.395 110.955C152.846 110.694 151.263 110.476 149.785 109.973C145.702 108.585 142.277 106.225 139.516 102.842C137.31 100.138 136.036 97.0672 135.424 93.6992C134.705 89.7362 135.35 85.8965 136.816 82.1893C137.808 79.6808 139.255 77.4579 141.237 75.605C141.387 75.4648 141.47 75.2524 141.584 74.9767C141.648 74.8477 141.713 74.8155 141.777 74.7832C143.047 74.0581 144.373 74.4407 145.686 74.5934ZM291.204 109.153C292.532 109.167 293.858 109.347 295.185 109.451C296.801 109.578 298.415 109.737 300.034 109.799C301.582 109.859 303.137 109.774 304.685 109.828C305.448 109.855 306.226 109.99 306.952 110.206C307.199 110.279 307.306 110.75 307.478 111.04C307.242 111.11 307.011 111.2 306.77 111.245C306.49 111.297 306.201 111.31 305.867 111.295C302.647 111.19 299.475 111.106 296.303 111.082C295.019 111.072 293.733 111.237 292.448 111.23C291.818 111.226 291.187 111.02 290.561 110.888C289.909 110.749 289.714 110.208 289.957 109.812C290.166 109.473 290.776 109.148 291.204 109.153ZM155.247 77.2716C155.973 80.7333 156.645 84.2067 157.357 87.6716C157.722 89.4503 157.288 90.1887 155.758 91.0523C153.737 92.1935 151.782 93.4647 149.85 94.7611C148.883 95.4105 148.089 95.6366 147.559 95.1234C147.058 94.6389 146.976 94.2123 147.644 93.7578C149.733 92.3354 151.832 90.923 153.852 89.4019C154.292 89.0707 154.688 88.2801 154.643 87.7419C154.477 85.7764 154.127 83.8265 153.824 81.8743C153.698 81.0597 153.517 80.254 153.36 79.3469C153.286 78.5466 153.071 77.8183 153.187 77.1502C153.26 76.7315 153.788 76.1598 154.185 76.0881C154.89 75.9609 155.128 76.708 155.247 77.2716ZM288.43 69.1833C288.548 69.3065 288.612 69.6419 288.529 69.7643C288.131 70.3514 287.674 70.8991 287.189 71.5092C285.626 73.641 284.13 75.7388 282.573 77.7905C282.369 78.0591 281.709 78.3151 281.501 78.1883C280.972 77.8658 281.448 77.5218 281.667 77.1563C283.123 74.7309 284.532 72.2779 285.975 69.8449C286.639 68.7246 287.719 68.4401 288.43 69.1833ZM244.071 37.8406C244.326 37.8619 244.612 38.1695 244.784 38.4232C245.414 39.354 245.083 40.4002 244.957 41.3672C244.738 43.0544 244.342 44.7174 244.033 46.3931C243.889 47.1757 243.775 47.9642 243.648 48.847C243.394 50.1604 243.117 51.3725 242.889 52.5942C242.476 54.8133 242.107 57.0408 241.692 59.2595C241.346 61.1103 240.972 62.9561 240.59 64.7997C239.962 67.8268 239.34 70.855 238.669 73.8722C238.485 74.7 237.84 75.01 237.311 74.6139C237.133 74.4804 236.955 74.138 236.997 73.9398C237.986 69.3247 239.046 64.725 240.006 60.1037C240.711 56.706 241.216 53.2647 241.951 49.8745C242.652 46.6447 243.013 43.4068 242.91 40.1017C242.892 39.53 243.16 38.9262 243.392 38.3797C243.498 38.1321 243.853 37.8224 244.071 37.8406ZM191.685 60.7602C191.872 61.0746 192.062 61.3859 192.251 61.7973C192.566 63.4694 192.89 65.0405 193.191 66.6167C193.342 67.4112 193.459 68.2133 193.572 69.015C193.601 69.2141 193.556 69.4246 193.544 69.6298C193.267 69.5833 192.819 69.6306 192.741 69.4745C192.337 68.6705 191.973 67.8334 191.699 66.9716C191.386 65.9844 191.255 64.9299 190.901 63.962C190.707 63.4323 190.18 63.0465 189.874 62.5487C189.608 62.1181 189.296 61.6252 189.284 61.1516C189.275 60.8477 189.73 60.3372 190.052 60.2594C190.616 60.1232 191.286 60.0856 191.685 60.7602Z" fill="#00160A" />
    <path d="M127.4 157.238C128.547 156.931 129.376 156.31 129.254 155.852C129.131 155.393 128.102 155.271 126.955 155.578C125.809 155.885 124.979 156.506 125.102 156.964C125.225 157.423 126.254 157.545 127.4 157.238Z" fill="#FFB61D" />
    <path fill-rule="evenodd" clip-rule="evenodd" d="M135.291 153.512C136.109 153.205 136.581 152.584 136.412 152.126C136.254 151.667 135.648 151.545 134.992 151.852C134.271 152.159 133.629 152.779 133.625 153.238C133.631 153.696 134.408 153.819 135.291 153.512Z" fill="#FFB61D" />
</svg>