<svg width="350" height="289" viewBox="0 0 350 289" fill="none" xmlns="http://www.w3.org/2000/svg">
    <path d="M215.084 193.779C229.483 195.535 241.837 204.415 252.004 205.631C263.304 206.983 280.392 199.559 297.818 208.297C302.304 210.546 305.987 213.249 304.614 216.608C302.223 222.461 297.19 224.755 286.166 226.346L284.99 226.508C276.468 227.642 267.309 227.916 244.089 228.07L236.155 228.13C207.851 228.376 191.482 229.702 170.286 231.395L168.125 231.57C129.093 234.782 97.936 234.267 74.6552 230.707L73.9521 230.598C55.143 227.652 43.8345 222.779 38.3144 217.249C35.0647 213.994 33.1928 210.959 33.0962 207.715C32.9995 204.471 37.7925 200.905 40.5212 199.559C48.1227 195.808 50.603 194.448 65.2167 192.528C71.5089 191.701 80.9357 191.767 91.8321 191.399C130.922 190.079 191.309 190.88 215.084 193.779Z" fill="white" />
    <path fill-rule="evenodd" clip-rule="evenodd" d="M226.505 200.853C204.346 251.008 124.156 249.393 68.3584 215.161C57.7022 208.623 21.0721 177.808 57.1247 159.815C93.1774 141.821 81.6297 114.183 110.726 81.2179C144.373 43.0956 207.034 23.543 251.103 74.8349C363.111 205.201 233.967 183.964 226.505 200.853Z" fill="#64FCD9" />
    <path fill-rule="evenodd" clip-rule="evenodd" d="M78.3712 67.8569C76.3735 64.6469 74.3716 63.4152 72.4023 64.4806C70.7353 65.3826 70.458 67.7917 71.345 71.6457L70.8134 71.9324C70.0829 72.3263 69.8101 73.2378 70.204 73.9682C70.238 74.0314 70.2766 74.092 70.3193 74.1497L70.6042 74.5309C74.7629 80.0476 78.0583 82.3071 80.6294 81.0646C82.7903 80.0202 83.1554 75.572 82.0436 67.5226C81.9657 66.9589 81.4633 66.5582 80.9037 66.5988L80.8335 66.6062C80.7065 66.6238 80.5837 66.6639 80.4709 66.7247L78.3712 67.8569ZM72.4746 70.7817L77.1111 68.2733L77.1001 68.2563C75.5058 65.7835 74.155 64.9968 73.0152 65.6135L72.9629 65.6436C72.1212 66.1573 71.888 67.7711 72.424 70.5293L72.4746 70.7817ZM80.809 68.0055L71.4247 73.0661C71.3204 73.1223 71.2814 73.2525 71.3377 73.3569C71.3425 73.3659 71.348 73.3746 71.3541 73.3828L71.6306 73.7527C75.4318 78.7948 78.2907 80.7642 80.0689 79.9049C81.42 79.252 81.7745 75.2866 80.8346 68.193L80.809 68.0055ZM78.8916 76.1193C79.1124 75.8881 79.2479 75.5749 79.2479 75.23C79.2479 74.5186 78.6713 73.942 77.9599 73.942C77.2486 73.942 76.6719 74.5186 76.6719 75.23C76.6719 75.9413 77.2486 76.5179 77.9599 76.5179C78.0159 76.5179 78.0711 76.5144 78.1252 76.5074L78.8574 77.8515L78.8839 77.8941C79.0078 78.0698 79.2465 78.1285 79.4398 78.0232C79.6481 77.9097 79.7249 77.649 79.6115 77.4408L78.8916 76.1193Z" fill="white" />
    <path fill-rule="evenodd" clip-rule="evenodd" d="M215.084 193.779C229.483 195.535 241.837 204.415 252.004 205.631C263.304 206.983 280.392 199.559 297.818 208.297C302.304 210.546 305.987 213.249 304.614 216.608C302.223 222.461 297.19 224.755 286.166 226.346L284.99 226.508C276.468 227.642 267.309 227.916 244.089 228.07L236.155 228.13C207.851 228.376 191.482 229.702 170.286 231.395L168.125 231.57C129.093 234.782 97.9359 234.267 74.6552 230.707L73.9521 230.598C55.1429 227.652 43.8345 222.779 38.3144 217.249C35.0647 213.994 33.1928 210.959 33.0962 207.715C32.9995 204.471 37.7925 200.905 40.5212 199.559C48.1227 195.808 50.603 194.448 65.2167 192.528C71.5089 191.701 80.9357 191.767 91.8321 191.399C130.922 190.079 191.309 190.88 215.084 193.779ZM64.8941 195.245L63.9364 195.372C50.318 197.219 41.6124 200.579 37.4885 203.928L37.2311 204.144C34.0645 206.873 33.7684 209.94 38.3202 214.475C43.2971 219.434 55.9907 225.028 74.2937 227.88C97.2077 231.45 128.014 232.487 166.702 229.382L170.758 229.055C193.093 227.299 210.23 226.364 241.945 226.141L250.7 226.076C269.582 225.905 277.608 225.567 285.356 224.491L286.092 224.385C320.304 217.693 295.618 205.686 281.455 205.631C269.326 205.584 254.758 208.996 250.7 207.719C237.913 203.694 231.347 197.531 215.084 195.56L210.355 194.993L206.318 194.802C140.153 191.729 92.9989 191.571 64.8941 195.245Z" fill="#00160A" />
    <path d="M107.746 39.7574C107.511 39.7499 107.275 39.7501 107.04 39.7582C101.251 39.9573 96.7058 44.7658 96.8107 50.5401L96.8154 50.7153L96.8864 52.879C97.0897 59.3779 97.2016 65.8512 97.2219 72.2988L97.2569 92.137C97.2647 99.2771 97.2603 105.721 97.2394 112.032L97.2107 118.724C97.0982 140.031 96.7947 154.985 96.2314 161.494L96.1226 162.711C95.4427 170.666 95.3019 182.092 95.7051 196.962C95.7098 197.134 95.7184 197.306 95.7311 197.477C96.1767 203.506 101.377 208.047 107.393 207.7L107.575 207.688L109.574 207.543C128.262 206.21 146.949 205.543 165.637 205.543C183.928 205.543 202.36 206.182 220.932 207.459C221.469 207.496 222.008 207.499 222.546 207.469C229.588 207.071 234.989 201.096 234.706 194.073L234.696 193.86L234.555 191.327C233.309 168.51 232.663 145.693 232.619 122.876L232.616 120.341C232.616 103.711 233.395 80.9034 234.952 51.9082C234.969 51.5834 234.973 51.258 234.963 50.9328C234.767 44.6388 229.557 39.6816 223.284 39.7748L223.093 39.7792L213.598 40.0671C192.026 40.7033 176.319 41.0358 166.466 41.0644L164.777 41.0663L163.039 41.0618C152.981 41.0186 137.41 40.6736 116.316 40.027L107.746 39.7574Z" fill="white" />
    <path fill-rule="evenodd" clip-rule="evenodd" d="M222.358 39.166C221.597 39.5828 220.595 39.8759 219.351 40.0451C222.553 40.3295 225.07 40.2631 226.904 39.8461L226.507 39.7971C225.216 39.6341 223.833 39.4237 222.358 39.166Z" fill="#E7EAEE" />
    <path fill-rule="evenodd" clip-rule="evenodd" d="M101.919 192.704L102.008 192.707C102.561 192.745 102.951 193.178 102.9 193.655C102.842 194.201 102.259 194.73 101.621 194.774C101.115 194.809 100.763 194.42 100.819 193.815C100.878 193.18 101.375 192.706 101.919 192.704Z" fill="#E7EAEE" />
    <path fill-rule="evenodd" clip-rule="evenodd" d="M112.054 200.996L112.143 200.999C112.696 201.038 113.086 201.47 113.035 201.947C112.977 202.493 112.394 203.023 111.756 203.067C111.25 203.102 110.898 202.712 110.954 202.107C111.013 201.473 111.51 200.998 112.054 200.996Z" fill="#E7EAEE" />
    <path fill-rule="evenodd" clip-rule="evenodd" d="M165.749 200.451C143.762 205.303 185.046 204.446 201.15 203.383C209.915 202.805 216.914 207.183 220.932 207.459C221.469 207.496 222.008 207.499 222.546 207.469C229.588 207.071 234.989 201.096 234.706 194.073L234.696 193.86L234.555 191.327C233.309 168.51 232.663 145.693 232.619 122.876L232.616 120.341C232.616 103.711 233.395 80.9034 234.952 51.9082C234.969 51.5834 234.973 51.258 234.963 50.9328C234.767 44.6388 222.706 187.88 165.749 200.451Z" fill="#E7EAEE" />
    <path d="M230.961 194.585L231.039 194.588C231.439 194.62 231.767 195.038 231.72 195.547C231.668 196.111 231.181 196.618 230.696 196.657C230.355 196.684 230.067 196.317 230.118 195.687C230.17 195.042 230.574 194.595 230.961 194.585Z" fill="white" />
    <path fill-rule="evenodd" clip-rule="evenodd" d="M230.823 198.264C229.392 198.377 228.386 197.097 228.51 195.557C228.632 194.06 229.772 192.871 231.141 192.98C232.488 193.086 233.454 194.315 233.326 195.696C233.202 197.023 232.11 198.162 230.823 198.264ZM231.039 194.588L230.961 194.585C230.574 194.595 230.17 195.042 230.118 195.687C230.067 196.317 230.355 196.684 230.696 196.657C231.181 196.618 231.668 196.111 231.72 195.547C231.767 195.038 231.439 194.62 231.039 194.588Z" fill="white" />
    <path d="M217.343 49.0503C222.431 49.0503 226.556 53.1754 226.556 58.2639C226.556 58.4544 226.55 58.6448 226.539 58.8349L226.403 61.092C226.156 65.376 225.909 70.4624 225.663 76.3511L225.625 77.2939C225.023 93.1348 225.004 130.611 225.568 189.722C225.616 194.811 221.531 198.975 216.443 199.023C216.319 199.025 216.195 199.023 216.071 199.019L114.987 195.901C110.307 195.756 106.479 192.124 106.09 187.458L106.004 186.404C104.673 169.624 104.593 148.198 105.766 122.126L105.938 118.387C106.537 104.667 106.584 84.6851 106.079 58.4412C105.982 53.4066 109.942 49.2376 114.955 49.0564L115.202 49.0507L217.343 49.0503Z" fill="white" />
    <path fill-rule="evenodd" clip-rule="evenodd" d="M149.381 157.706C153.847 157.894 158.433 157.102 162.41 155.159C167.391 152.725 171.138 148.642 173.213 142.787C175.946 135.076 174.942 126.737 171.014 119.398C167.517 112.866 162.02 107.894 156.953 106.665C156.953 106.665 171.014 126.444 168.999 137.256C165.919 153.788 149.381 157.706 149.381 157.706Z" fill="#E7EAEE" />
    <path fill-rule="evenodd" clip-rule="evenodd" d="M152.628 134.478C154.802 135.38 155.465 137.055 154.619 139.504L154.57 139.64C149.067 154.752 142.577 154.889 148.13 139.64C148.803 137.793 148.636 136.376 147.63 135.389C149.408 135.028 151.075 134.724 152.628 134.478Z" fill="#E7EAEE" />
    <path fill-rule="evenodd" clip-rule="evenodd" d="M118.158 116.814C119.582 112.583 121.662 109.403 125.548 106.888L126.041 106.575C126.88 106.049 127.913 105.453 128.754 105.86C129.822 106.377 131.369 108.262 130.428 109.002C129.79 109.504 127.163 110.038 125.183 111.772C122.846 113.82 121.163 117.12 121.163 117.928C121.163 120.564 117.317 119.312 118.158 116.814Z" fill="#E7EAEE" />
    <path fill-rule="evenodd" clip-rule="evenodd" d="M113.755 56.5118C108.866 69.9339 108.9 72.597 108.606 70.2836C107.658 62.8017 106.942 57.8851 108.069 54.8985C109.496 51.1174 113.074 50.3737 113.995 50.8125C115.943 51.7403 113.755 56.5118 113.755 56.5118Z" fill="#E7EAEE" />
    <path fill-rule="evenodd" clip-rule="evenodd" d="M194.179 125.491L192.553 125.441C190.624 125.392 189.233 125.404 188.066 125.495C187.129 125.568 186.43 125.696 186.034 125.821L185.956 125.847L185.948 125.884C185.904 126.103 185.873 126.396 185.859 126.75L185.855 126.886C185.829 127.948 185.957 129.368 186.212 130.953C186.422 132.253 186.707 133.603 187.006 134.741L187.08 135.021C187.196 135.446 187.307 135.815 187.405 136.103L187.44 136.205L187.483 136.221C188.082 136.434 189.274 136.459 191.57 136.29L193.13 136.168C194.181 136.091 194.947 136.057 195.703 136.067L203.035 136.221C204.06 136.24 204.987 136.255 205.895 136.267L207.542 136.285C211.655 136.525 216.175 136.345 216.738 135.322C218.453 132.199 219.261 125.768 218.453 125.725C216.998 125.648 215.237 125.556 214.4 125.567L212.468 125.602L210.716 125.616C209.916 125.621 209.082 125.624 208.187 125.624L198.138 125.601C197.485 125.597 196.845 125.581 195.692 125.543L194.179 125.491Z" fill="#E7EAEE" />
    <path fill-rule="evenodd" clip-rule="evenodd" d="M117.133 37.7477L107.82 37.4554C107.534 37.4462 107.247 37.4465 106.961 37.4564C99.8416 37.7012 94.2684 43.6714 94.5132 50.7911L94.5841 52.9512C94.6676 55.6187 94.7946 58.2819 94.9213 60.9407C95.1366 65.4555 95.3513 69.9576 95.3513 74.4472L95.3812 90.7304C95.4098 113.438 95.341 150.836 94.3325 161.668L94.2566 162.518C93.601 170.193 93.012 180.991 93.3484 194.913L93.4026 197.025C93.4082 197.232 93.4187 197.44 93.434 197.647C93.9778 205.005 100.384 210.53 107.742 209.986L109.738 209.841L110.069 209.817C110.136 209.928 110.203 210.04 110.27 210.15H110.27C110.593 210.684 110.896 211.183 110.966 211.428C111.143 212.045 111.162 212.744 111.059 214.326L110.956 215.809L110.928 216.291C110.777 219.247 111.118 221.006 112.56 222.33C114.415 224.033 116.38 223.853 120.406 223.483L120.587 223.466L121.623 223.366C122.821 223.25 124.168 223.344 125.086 223.407H125.086C125.35 223.426 125.579 223.441 125.758 223.449L126.097 223.466C128.408 223.558 128.774 222.798 128.976 220.918C129.088 219.882 128.943 219.067 128.334 216.964L127.879 215.415L127.728 214.876C127.017 212.249 127.082 210.937 128.008 210.303C128.232 210.149 129.171 209.87 130.254 209.548C131.367 209.217 132.633 208.84 133.431 208.509C144.166 208.067 154.902 207.847 165.637 207.847C176.917 207.847 188.251 208.09 199.638 208.577C199.563 208.701 199.549 208.878 199.629 209.126C199.72 209.406 200.062 209.6 200.5 209.848C201.661 210.504 203.49 211.539 203.065 215.557L203.066 215.722C203.131 218.889 205.05 220.747 208.139 221.377C210.204 221.799 212.553 221.672 215.111 221.228C216.377 221.008 217.193 220.216 217.583 219.009C217.798 218.343 217.875 217.744 217.925 216.552C217.925 216.552 217.362 210.358 220.495 209.738C220.588 209.744 220.681 209.751 220.774 209.757C221.137 209.782 221.5 209.794 221.863 209.793C221.912 209.805 221.962 209.817 222.012 209.831C222.162 209.871 222.305 209.848 222.434 209.781C222.515 209.777 222.596 209.773 222.676 209.769C231.059 209.295 237.47 202.115 236.996 193.732L236.855 191.201C235.565 167.581 234.919 143.961 234.919 120.341C234.919 104.257 235.651 82.3501 237.114 54.6214L237.252 52.0319C237.273 51.6421 237.277 51.2516 237.265 50.8614C237.028 43.2323 230.651 37.2399 223.022 37.4771L218.186 37.6256C194.225 38.352 176.984 38.7306 166.463 38.7612L164.778 38.7631C154.956 38.7555 139.074 38.417 117.133 37.7477ZM217.35 209.529C212.026 209.185 206.714 208.894 201.413 208.655C203.951 209.887 204.856 212.187 204.906 215.369L204.907 215.557C204.907 217.615 206.509 218.959 208.663 219.399C208.888 219.445 209.12 219.495 209.356 219.546C210.844 219.869 212.545 220.238 214.431 219.928L214.717 219.88C216.022 219.399 216.022 214.712 216.022 214.712C216.036 214.33 216.05 214.082 216.072 213.779L216.1 213.439C216.263 211.733 216.62 210.459 217.35 209.529ZM113.18 210.793C113.055 210.356 112.876 209.971 112.646 209.639C117.165 209.333 121.685 209.066 126.204 208.839C125.498 209.626 125.432 210.688 125.406 211.958C125.383 213.052 125.604 214.216 126.069 215.855L126.097 215.953L126.523 217.401C127.044 219.19 127.2 219.939 127.156 220.565L127.147 220.672C127.084 221.254 126.337 221.91 125.074 221.837L124.849 221.825C124.307 221.743 118.974 221.837 118.974 221.837C116.512 222.086 115.326 221.743 114.118 220.634C113.307 219.889 113.09 218.566 113.249 216.035L113.349 214.614C113.474 212.756 113.464 211.886 113.23 210.976L113.18 210.793ZM107.04 39.7584C107.275 39.7503 107.511 39.7501 107.746 39.7576L116.316 40.0272C137.41 40.6738 152.981 41.0188 163.039 41.062L164.777 41.0665L166.466 41.0646C176.319 41.036 192.026 40.7035 213.598 40.0673L223.093 39.7794L223.284 39.775C229.557 39.6818 234.767 44.639 234.963 50.933C234.973 51.2582 234.969 51.5836 234.952 51.9084C233.395 80.9036 232.616 103.711 232.616 120.341L232.619 122.877C232.663 145.693 233.309 168.51 234.555 191.327L234.696 193.86L234.706 194.073C234.989 201.096 229.588 207.071 222.546 207.469C222.008 207.5 221.469 207.496 220.932 207.459C202.36 206.182 183.928 205.543 165.637 205.543C146.949 205.543 128.262 206.21 109.574 207.543L107.575 207.689L107.393 207.701C101.377 208.047 96.1767 203.506 95.7311 197.477C95.7185 197.306 95.7098 197.134 95.7051 196.962C95.3019 182.092 95.4428 170.666 96.1226 162.711L96.2314 161.494C96.7947 154.985 97.0982 140.031 97.2107 118.724L97.2394 112.032C97.2603 105.721 97.2647 99.2773 97.2569 92.1372L97.2219 72.299C97.2016 65.8514 97.0898 59.3781 96.8864 52.8792L96.8154 50.7155L96.8108 50.5403C96.7058 44.766 101.251 39.9575 107.04 39.7584ZM226.556 58.2639C226.556 53.1754 222.431 49.0503 217.343 49.0503L115.202 49.0507L114.955 49.0564C109.942 49.2375 105.982 53.4065 106.079 58.4411C106.584 84.6851 106.537 104.667 105.938 118.387L105.766 122.126C104.593 148.198 104.672 169.624 106.004 186.404L106.089 187.458C106.479 192.124 110.307 195.756 114.987 195.901L216.071 199.019C216.195 199.023 216.319 199.024 216.443 199.023C221.531 198.975 225.616 194.811 225.568 189.722C225.004 130.611 225.023 93.1348 225.625 77.2939L225.663 76.3511C225.909 70.4624 226.156 65.376 226.403 61.092L226.539 58.8349C226.55 58.6448 226.556 58.4544 226.556 58.2639ZM115.291 51.3537H217.343C221.159 51.3537 224.253 54.4475 224.253 58.2639C224.253 58.4067 224.248 58.5495 224.24 58.6921C223.998 62.5775 223.758 67.2158 223.518 72.6079L223.361 76.2548C222.753 90.8075 222.694 125.657 223.183 180.859L223.265 189.744C223.301 193.56 220.237 196.684 216.421 196.72C216.379 196.72 216.337 196.72 216.295 196.72C216.244 196.72 216.193 196.719 216.142 196.717L115.058 193.598L114.906 193.592C111.465 193.411 108.673 190.715 108.385 187.266C106.966 170.269 106.872 148.311 108.104 121.405L108.22 118.915C108.802 105.969 108.884 87.4028 108.469 63.2034L108.382 58.3968C108.309 54.5811 111.342 51.4284 115.158 51.3549C115.202 51.3541 115.247 51.3537 115.291 51.3537ZM111.76 44.2894C111.906 45.8553 110.771 47.112 109.242 47.0068C107.844 46.9106 106.614 45.7941 106.471 44.4495L106.462 44.3512C106.373 43.0133 107.398 41.876 108.773 41.7302L108.877 41.7211C110.343 41.6202 111.62 42.7792 111.76 44.2894ZM109.056 43.3275L108.967 43.3309C108.413 43.3692 108.023 43.8014 108.074 44.2785C108.132 44.8246 108.716 45.3544 109.353 45.3982C109.859 45.4331 110.211 45.0435 110.155 44.4385C110.096 43.8043 109.599 43.3298 109.056 43.3275ZM100.904 56.5029C99.31 56.6444 98.2359 55.1108 98.3684 53.2717C98.4983 51.4691 99.7362 50.0203 101.269 50.1563L101.368 50.1671C102.776 50.3503 103.748 51.7352 103.669 53.2875L103.661 53.3961C103.53 54.9829 102.34 56.3755 100.904 56.5029ZM101.151 51.7642L101.072 51.7604C100.583 51.7664 100.046 52.4271 99.9766 53.3876C99.9075 54.3472 100.32 54.936 100.761 54.8969C101.36 54.8437 101.984 54.1139 102.054 53.2632C102.121 52.4577 101.668 51.8104 101.151 51.7642ZM220.258 44.2894C220.112 45.8553 221.247 47.112 222.776 47.0068C224.174 46.9106 225.404 45.7941 225.548 44.4495L225.556 44.3512C225.645 43.0133 224.62 41.876 223.245 41.7302L223.141 41.7211C221.675 41.6202 220.398 42.7792 220.258 44.2894ZM222.963 43.3275L223.052 43.3309C223.605 43.3692 223.995 43.8014 223.944 44.2785C223.886 44.8246 223.303 45.3544 222.665 45.3982C222.159 45.4331 221.807 45.0435 221.863 44.4385C221.922 43.8043 222.419 43.3298 222.963 43.3275ZM228.843 53.8674C227.988 52.5959 228.509 50.9848 229.938 50.3278C231.316 49.6942 232.958 50.2204 233.603 51.5408L233.648 51.6352C234.209 52.899 233.736 54.3553 232.533 54.9472L232.444 54.989C231.208 55.5371 229.626 55.0302 228.843 53.8674ZM232.165 52.268L232.123 52.1891C231.849 51.7199 231.19 51.5267 230.611 51.7928C230.059 52.0466 229.898 52.5461 230.181 52.9672C230.538 53.4971 231.288 53.7376 231.79 53.515C232.229 53.3205 232.408 52.7665 232.165 52.268ZM99.7653 191.867C98.6473 192.973 98.7088 194.665 99.9477 195.568C101.081 196.393 102.74 196.328 103.715 195.39L103.784 195.32C104.712 194.353 104.658 192.823 103.699 191.827L103.625 191.753C102.566 190.733 100.843 190.801 99.7653 191.867ZM102.455 192.869L102.522 192.929C102.921 193.314 102.942 193.896 102.596 194.229C102.201 194.61 101.413 194.64 100.897 194.264C100.486 193.965 100.467 193.441 100.899 193.014C101.352 192.566 102.038 192.522 102.455 192.869ZM110.083 203.86C108.844 202.958 108.782 201.266 109.9 200.16C110.978 199.093 112.701 199.026 113.76 200.046L113.834 200.119C114.793 201.115 114.847 202.645 113.919 203.613L113.85 203.682C112.875 204.62 111.216 204.685 110.083 203.86ZM112.657 201.221L112.59 201.161C112.173 200.814 111.487 200.858 111.034 201.306C110.602 201.733 110.621 202.258 111.032 202.557C111.548 202.932 112.336 202.902 112.731 202.521C113.077 202.188 113.056 201.606 112.657 201.221ZM223.51 200.695C222.226 201.99 222.192 203.894 223.559 204.873C224.812 205.77 226.687 205.593 227.808 204.489C228.971 203.345 229.004 201.503 227.861 200.383C226.703 199.25 224.761 199.433 223.51 200.695ZM226.682 201.489L226.747 201.55C227.221 202.014 227.207 202.819 226.677 203.34C226.107 203.901 225.104 203.996 224.498 203.562C224.008 203.211 224.021 202.469 224.655 201.83C225.298 201.182 226.193 201.077 226.682 201.489ZM230.823 198.264C229.392 198.377 228.386 197.097 228.51 195.557C228.632 194.06 229.772 192.871 231.141 192.979C232.488 193.086 233.454 194.315 233.326 195.696C233.202 197.023 232.11 198.162 230.823 198.264ZM231.039 194.588L230.961 194.585C230.574 194.595 230.17 195.042 230.118 195.687C230.067 196.317 230.355 196.683 230.696 196.657C231.181 196.618 231.668 196.111 231.72 195.547C231.767 195.038 231.439 194.62 231.039 194.588Z" fill="#00160A" />
    <path fill-rule="evenodd" clip-rule="evenodd" d="M109.9 200.159C108.782 201.265 108.844 202.958 110.083 203.86C111.216 204.685 112.876 204.62 113.85 203.682L113.92 203.612C114.848 202.645 114.793 201.115 113.834 200.119L113.76 200.045C112.702 199.026 110.979 199.093 109.9 200.159ZM112.591 201.161L112.657 201.221C113.056 201.606 113.077 202.188 112.732 202.521C112.336 202.902 111.548 202.932 111.032 202.556C110.622 202.258 110.603 201.733 111.034 201.306C111.487 200.858 112.173 200.814 112.591 201.161Z" fill="#00160A" />
    <path d="M226.682 201.489L226.747 201.549C227.221 202.014 227.207 202.819 226.677 203.34C226.107 203.901 225.104 203.996 224.498 203.562C224.008 203.211 224.021 202.469 224.655 201.83C225.298 201.181 226.193 201.077 226.682 201.489Z" fill="white" />
    <path fill-rule="evenodd" clip-rule="evenodd" d="M125.007 102.618C124.476 102.803 123.996 103.054 123.403 103.419L122.948 103.704L122.722 103.848C119.287 106.065 116.993 108.823 115.362 112.557L115.274 112.759L115.209 112.74C114.776 112.613 114.383 112.551 113.964 112.585C113.069 112.66 112.235 113.196 111.937 114.195C111.472 115.756 111.664 117.541 112.268 119.368L112.381 119.702C112.971 121.396 113.623 122.546 114.707 122.881C116.149 123.327 121.13 121.353 122.867 119.561C124.106 118.283 123.61 116.72 122.431 115.818L122.322 115.738L122.208 115.659L122.079 115.575L122.166 115.421C122.226 115.314 122.289 115.206 122.355 115.097C123.059 113.929 123.94 112.825 124.832 112.044C125.176 111.743 125.573 111.467 126.026 111.209C126.727 110.811 129.522 109.714 129.992 109.344C131.504 108.155 131.329 106.433 130.373 104.941C129.778 104.013 128.844 103.143 127.941 102.706C126.992 102.246 125.999 102.274 125.007 102.618ZM127.037 104.572C128.105 105.089 129.652 106.974 128.711 107.714C128.073 108.216 125.446 108.75 123.466 110.484C121.129 112.532 119.446 115.832 119.446 116.64L119.713 116.74C121.17 117.301 121.726 117.76 121.379 118.118C119.833 119.713 115.631 120.997 115.32 120.901C115.014 120.806 113.201 117.211 113.924 114.787C114.02 114.464 114.859 114.71 116.441 115.526C117.865 111.295 119.945 108.115 123.831 105.6L124.324 105.287C125.163 104.761 126.196 104.165 127.037 104.572Z" fill="#00160A" />
    <path fill-rule="evenodd" clip-rule="evenodd" d="M128.152 150.324C119.619 140.998 119.125 125.089 128.344 114.844C134.071 108.479 147.533 104.379 156.953 106.665C162.02 107.894 167.517 112.866 171.014 119.398C174.942 126.737 175.945 135.075 173.213 142.787C171.138 148.642 167.391 152.725 162.41 155.159C158.433 157.102 153.847 157.894 149.381 157.706C141.322 157.367 131.301 153.765 128.152 150.324ZM168.983 120.485C165.772 114.486 160.768 109.961 156.41 108.903L156.151 108.843C147.558 106.894 135.163 110.71 130.056 116.385C121.649 125.728 122.101 140.299 129.852 148.769C132.526 151.692 141.977 155.089 149.478 155.404C153.584 155.577 157.794 154.85 161.398 153.089C165.847 150.915 169.173 147.292 171.042 142.017C173.544 134.955 172.621 127.282 168.983 120.485ZM164.546 142.554C169.643 133.606 162.733 114.284 153.082 112.672C144.01 111.156 140.571 113.357 136.658 116.749L135.902 117.413C128.245 124.183 128.245 138.726 135.725 145.474C137.605 147.17 145.876 151.52 152.223 150.189C156.432 149.306 162.288 146.517 164.546 142.554ZM143.245 115.196C143.725 115.023 144.232 114.881 144.772 114.771C144.699 114.939 144.637 115.117 144.586 115.305C144.3 116.357 144.329 117.257 144.638 119.447L144.849 120.899C144.867 121.027 144.883 121.144 144.899 121.264L144.945 121.634C145.273 124.407 144.975 125.853 143.735 126.651C142.601 127.381 141.485 127.657 138.936 127.954L137.981 128.062C136.805 128.197 136.187 128.291 135.444 128.459L135.108 128.526C134.079 128.743 133.224 129.012 132.561 129.35C132.999 125.388 134.621 121.62 137.428 119.138C140.075 116.798 141.41 115.853 143.245 115.196ZM152.702 114.944C152.33 114.881 151.967 114.825 151.614 114.776C151.688 114.963 151.75 115.163 151.802 115.373C152.018 116.252 152.055 117.031 152.003 118.809L151.977 119.575C151.95 120.313 151.938 120.752 151.934 121.174V121.68C151.955 123.928 152.308 125.422 153.172 126.434L153.268 126.542L153.307 126.558C153.36 126.58 153.428 126.604 153.509 126.631L153.594 126.659C153.792 126.722 154.04 126.792 154.358 126.876L154.89 127.012L157.16 127.567C157.606 127.678 158.003 127.779 158.382 127.88L159.007 128.048C160.884 128.565 162.322 129.069 163.369 129.631C161.806 122.634 157.503 115.746 152.702 114.944ZM163.62 134.777C163.75 134.694 163.873 134.61 163.988 134.525C164.045 137.135 163.607 139.548 162.544 141.414C161.018 144.093 156.779 146.645 152.64 147.725C152.744 147.461 152.829 147.174 152.895 146.867C153.096 145.922 153.128 144.84 153.049 143.307L152.999 142.482L152.924 141.398C152.782 139.231 152.816 138.325 153.005 138.107C153.855 137.131 155.032 136.757 158.028 136.327L158.723 136.228C161.228 135.862 162.402 135.553 163.62 134.777ZM146.015 146.603C146.046 146.991 146.176 147.388 146.385 147.763C145.322 147.538 144.217 147.215 143.091 146.803C140.571 145.881 138.129 144.54 137.268 143.764C134.536 141.299 132.963 137.579 132.55 133.663C133.258 133.989 134.194 134.265 135.356 134.54L135.535 134.582C136.004 134.691 136.484 134.792 137.05 134.904L138.668 135.218C142.289 135.962 144.159 136.824 145.013 137.976L145.099 138.096C145.665 138.922 145.821 139.856 145.867 142.281L145.892 144.009C145.913 145.043 145.944 145.729 146.015 146.603ZM148.739 114.869L148.843 114.878C149.821 114.995 150.027 115.901 149.912 119.321L149.873 120.507C149.863 120.864 149.859 121.152 149.86 121.468C149.861 123.612 150.118 125.278 150.807 126.612C150.678 126.544 150.531 126.505 150.375 126.505L150.219 126.507L150.18 126.508L150.162 126.501C149.897 126.403 149.608 126.434 149.375 126.571L149.351 126.586L149.27 126.599C147.261 126.934 145.264 128.134 144.193 129.724C143.044 131.429 143.101 133.29 144.412 134.885C143.165 134.227 141.51 133.699 139.327 133.238L138.623 133.096C138.209 133.016 137.692 132.917 137.691 132.917L137.275 132.835C136.873 132.754 136.516 132.679 136.174 132.601L136.004 132.562C134.964 132.321 134.143 132.073 133.569 131.815L133.478 131.772C133.301 131.688 133.161 131.608 133.061 131.536L133.048 131.525L133.073 131.499C133.144 131.429 133.252 131.349 133.399 131.264C133.902 130.973 134.731 130.707 135.869 130.488L136.157 130.426C136.663 130.321 137.159 130.247 137.933 130.155L139.19 130.011C142.049 129.678 143.372 129.35 144.857 128.395C147.022 127.001 147.436 124.823 146.979 121.189L146.929 120.805C146.903 120.617 146.875 120.421 146.838 120.171L146.695 119.189C146.439 117.363 146.402 116.58 146.57 115.909L146.586 115.849C146.792 115.093 147.316 114.78 148.739 114.869ZM146.598 136.636C146.625 136.671 146.652 136.706 146.678 136.741C147.657 138.062 147.882 139.229 147.939 142.207L147.962 143.781C147.979 144.766 148.005 145.415 148.06 146.166L148.081 146.436C148.124 146.968 149.033 147.815 150.037 147.623C150.819 147.474 151.122 146.193 150.974 143.341L150.954 142.984L150.84 141.311C150.659 138.571 150.716 137.661 151.342 136.867C149.842 137.431 148.099 137.404 146.598 136.636ZM153.76 135.137C154.69 134.785 155.873 134.547 157.516 134.306L158.407 134.179C160.489 133.875 161.496 133.626 162.348 133.125L162.507 133.028C163.471 132.414 163.564 132.291 163.135 131.945L162.996 131.837C162.237 131.266 160.772 130.696 158.662 130.104L158.216 129.981C157.735 129.851 157.241 129.724 156.658 129.579L154.234 128.984C153.776 128.869 153.409 128.773 153.111 128.685C154.985 130.666 155.295 132.896 154.007 134.801L153.934 134.906C153.878 134.985 153.82 135.061 153.76 135.137ZM149.639 128.406L149.77 128.387L149.863 128.443C152.876 130.275 153.547 132.271 152.433 133.838C151.324 135.396 148.89 135.934 147.143 134.827C145.118 133.544 144.781 132.148 145.721 130.753C146.515 129.574 148.102 128.642 149.639 128.406Z" fill="#00160A" />
    <path d="M181.38 124.86C181.388 124.546 181.409 124.299 181.435 124.113C181.629 124.059 181.917 123.994 182.323 123.937C183.203 123.812 184.324 123.76 185.622 123.758C186.91 123.755 188.286 123.8 189.671 123.848C189.754 123.851 189.838 123.854 189.922 123.857C191.202 123.901 192.496 123.946 193.645 123.947C194.96 123.949 196.299 123.953 197.651 123.958C200.964 123.969 204.349 123.981 207.618 123.947C207.775 123.946 207.993 123.941 208.261 123.935C209.31 123.913 211.122 123.876 212.988 123.936C214.156 123.973 215.262 124.048 216.139 124.175C216.537 124.232 216.844 124.295 217.064 124.354C217.157 124.597 217.257 124.974 217.333 125.494C217.491 126.584 217.498 127.995 217.332 129.414C217.164 130.848 216.841 132.104 216.455 132.94C216.318 133.236 216.208 133.412 216.135 133.511C210.473 134.08 201.115 133.876 193.521 133.71C192.662 133.691 191.825 133.673 191.019 133.656C189.97 133.635 188.895 133.705 187.918 133.781C187.669 133.8 187.429 133.819 187.195 133.838C186.469 133.897 185.806 133.951 185.16 133.978C184.31 134.014 183.659 133.994 183.17 133.912C183.053 133.893 182.957 133.871 182.878 133.85C182.795 133.597 182.698 133.274 182.592 132.887C182.294 131.792 181.971 130.34 181.733 128.858C181.491 127.357 181.354 125.935 181.38 124.86ZM216.971 124.152C216.971 124.152 216.972 124.154 216.975 124.159C216.972 124.155 216.971 124.152 216.971 124.152ZM216.037 133.624C216.037 133.624 216.042 133.618 216.053 133.61C216.043 133.621 216.037 133.625 216.037 133.624ZM181.509 123.751C181.516 123.73 181.52 123.721 181.521 123.721C181.521 123.722 181.518 123.732 181.509 123.751Z" stroke="#421EB7" stroke-width="5.36509" />
    <path fill-rule="evenodd" clip-rule="evenodd" d="M193.622 121.488C194.951 121.489 196.298 121.494 197.654 121.498C200.442 121.508 203.265 121.518 206.03 121.5L207.565 121.488C207.697 121.486 207.892 121.482 208.138 121.477C210.446 121.428 217.255 121.285 218.753 122.421C221.203 124.281 220.227 135.987 216.725 136.367C210.912 136.999 201.143 136.784 193.454 136.615C192.586 136.596 191.744 136.578 190.938 136.561C189.818 136.538 188.613 136.636 187.423 136.732C184.755 136.948 182.163 137.158 180.784 135.987C180.073 135.382 177.333 123.877 179.467 122.297C181.098 121.09 185.773 121.252 189.974 121.398C191.017 121.434 192.031 121.47 192.961 121.483L192.963 121.481L192.964 121.483C193.189 121.486 193.408 121.487 193.622 121.488ZM190.813 123.731C191.04 123.739 191.246 123.745 191.437 123.751C191.592 124.705 191.61 126.381 191.499 128.851L191.417 130.635C191.344 132.303 191.318 133.439 191.365 134.267L190.823 134.255C190.068 134.246 189.302 134.279 188.251 134.357L186.691 134.478C184.394 134.648 183.203 134.623 182.604 134.41L182.561 134.394L182.526 134.291C182.428 134.004 182.317 133.634 182.201 133.21L182.126 132.93C181.828 131.792 181.542 130.441 181.333 129.141C181.078 127.556 180.949 126.137 180.975 125.074L180.98 124.939C180.993 124.585 181.025 124.292 181.068 124.073L181.076 124.036L181.155 124.01C181.55 123.884 182.25 123.757 183.187 123.683C184.353 123.592 185.744 123.581 187.674 123.63L189.3 123.68L190.813 123.731ZM198.155 134.409L193.702 134.316C193.678 134.055 193.661 133.734 193.655 133.362L193.654 133.282C193.646 132.699 193.658 132.142 193.699 131.163L193.828 128.284C193.907 126.306 193.909 124.87 193.779 123.791L203.307 123.813C203.817 123.812 204.308 123.811 204.783 123.81C204.637 126.676 204.869 131.688 205.167 134.488C204.363 134.487 203.529 134.482 202.663 134.474L201.016 134.455C200.108 134.443 199.181 134.428 198.155 134.409ZM207.507 134.48C211.047 134.451 213.888 134.336 216.091 134.117L216.298 134.096L216.325 134.067C216.442 133.934 216.58 133.72 216.72 133.433L216.773 133.322C217.187 132.428 217.514 131.124 217.683 129.681C217.85 128.253 217.849 126.806 217.682 125.662C217.606 125.135 217.498 124.702 217.376 124.4L217.342 124.318L217.316 124.264L217.224 124.236C216.977 124.163 216.639 124.093 216.225 124.031C215.409 123.909 214.358 123.828 213.128 123.785C211.985 123.745 210.822 123.739 209.52 123.756L207.589 123.791L207.04 123.795C207.022 124.107 207.009 124.477 207.003 124.892L207.002 125.027C206.993 126.15 207.033 127.564 207.113 129.131L207.129 129.446C207.195 130.675 207.283 131.944 207.376 133.061L207.433 133.711C207.458 133.988 207.483 134.247 207.507 134.48ZM197.363 127.682L197.573 127.983C197.813 128.321 198.039 128.62 198.255 128.884C197.966 129.515 197.814 130.224 197.766 131.136C197.749 131.468 198.003 131.751 198.335 131.768C198.667 131.786 198.95 131.531 198.968 131.199C198.995 130.673 199.059 130.24 199.174 129.855C199.84 130.438 200.423 130.654 201.036 130.665L201.154 130.665C201.486 130.665 201.756 130.396 201.756 130.064C201.756 129.752 201.519 129.496 201.215 129.465L201.154 129.462H201.053C200.66 129.453 200.265 129.288 199.726 128.744C199.901 128.499 200.113 128.255 200.366 127.995L201.011 127.357C201.247 127.123 201.249 126.742 201.015 126.506C200.781 126.27 200.4 126.268 200.164 126.502L199.624 127.034C199.361 127.297 199.131 127.549 198.929 127.802L198.711 127.506C198.598 127.349 198.479 127.181 198.355 127.001C198.167 126.727 197.792 126.657 197.519 126.845C197.245 127.033 197.175 127.408 197.363 127.682ZM213.792 127.109L213.798 126.742C213.8 126.409 213.533 126.138 213.201 126.135C212.869 126.132 212.597 126.399 212.594 126.732C212.591 127.097 212.582 127.424 212.567 127.718C212.258 127.62 211.926 127.54 211.562 127.469L210.816 127.33C210.49 127.268 210.175 127.483 210.113 127.809C210.051 128.135 210.265 128.45 210.592 128.512L211.484 128.681C211.839 128.755 212.15 128.838 212.433 128.943C212.29 129.696 212.055 130.054 211.734 130.281L211.65 130.337L211.601 130.374C211.367 130.57 211.314 130.914 211.488 131.173C211.674 131.448 212.048 131.521 212.323 131.335L212.421 131.269C212.923 130.917 213.286 130.411 213.512 129.556C213.822 129.811 214.118 130.134 214.434 130.555C214.634 130.82 215.012 130.873 215.277 130.673C215.542 130.473 215.595 130.096 215.396 129.831C214.846 129.101 214.323 128.598 213.73 128.237C213.762 127.898 213.782 127.523 213.792 127.109Z" fill="#00160A" />
    <path fill-rule="evenodd" clip-rule="evenodd" d="M187.543 127.057L187.448 127.412C187.339 127.812 187.228 128.17 187.116 128.492C187.604 128.986 187.989 129.6 188.346 130.441C188.476 130.747 188.333 131.1 188.027 131.23C187.721 131.36 187.368 131.217 187.238 130.911C187.033 130.427 186.824 130.041 186.585 129.719C186.158 130.494 185.684 130.897 185.112 131.117L185.001 131.158C184.689 131.271 184.344 131.11 184.23 130.798C184.123 130.505 184.258 130.184 184.533 130.051L184.589 130.027L184.684 129.992C185.05 129.85 185.365 129.559 185.686 128.864C185.437 128.693 185.155 128.537 184.828 128.379L184.004 128C183.702 127.861 183.57 127.503 183.709 127.202C183.848 126.9 184.206 126.768 184.508 126.907L185.197 127.222C185.534 127.379 185.837 127.538 186.112 127.706C186.198 127.426 186.286 127.11 186.378 126.757C186.461 126.435 186.789 126.241 187.111 126.324C187.432 126.407 187.626 126.736 187.543 127.057Z" fill="#64FCD9" />
</svg>