<svg id="Layer_1" data-name="Layer 1" xmlns="http://www.w3.org/2000/svg" xmlns:xlink="http://www.w3.org/1999/xlink" viewBox="0 0 500 500">
    <defs>
        <style>.cls-1{fill:none;}.cls-2,.cls-5{fill:#f1616e;}.cls-2,.cls-3{fill-rule:evenodd;}.cls-3{fill:#fee96a;}.cls-4{clip-path:url(#clip-path);}</style>
        <clipPath id="clip-path">
            <rect class="cls-1" x="128.5" y="66.72" width="364.07" height="421.28" />
        </clipPath>
    </defs>
    <path class="cls-2" d="M33.63,307.7,7.43,350.3q73.26-11.57,119.13,19.84-33.3-44.17-93-62.44Z" />
    <path class="cls-3" d="M12.06,285.43Q97.24,296.88,144.29,369q-11.76-72.78-73.94-116Z" />
    <path class="cls-2" d="M40.79,205.41Q157,280.22,166.69,411.27q19.42-103.33-57.86-185.19,64.71-18.56,99.69-87.73Q323.89,338.94,135,459C294.49,403.8,318.44,235.61,206.86,86q-37.28,124.65-166,119.38Z" />
    <g class="cls-4">
        <path class="cls-3" d="M231.8,67.76c132.82,167.84,90.59,358-101.4,421Q432.34,471.36,492.51,103.6,413.07,211.14,231.8,67.76Z" />
    </g>
    <path class="cls-3" d="M397.83,109.06a48.53,48.53,0,1,0-48.6-48.54A48.66,48.66,0,0,0,397.83,109.06Z" />
    <path class="cls-5" d="M197.44,236.09l9.75-3.26-.14-7.16L170.13,238l.14,7.17,13.07-4.37a11.76,11.76,0,0,1,13.09,4.06L175,252l.14,7.16,23.7-7.92a11.75,11.75,0,0,1-8,12L178,267.57l1.66,4.94,31.71,16.09,8.43-2.82-.24-.73-30.08-15,4.83-1.61a17.8,17.8,0,0,0,11.92-19.64l5.5-1.84-.14-7.17-7.67,2.57A17.57,17.57,0,0,0,197.44,236.09Z" />
</svg>